<svg id="Warstwa_1" data-name="Warstwa 1" xmlns="http://www.w3.org/2000/svg" xmlns:xlink="http://www.w3.org/1999/xlink" viewBox="0 0 48 48">
  <defs>
    <style>
      .cls-1 {
        fill: none;
      }

      .cls-2 {
        fill: #1d1d1b;
      }

      .cls-3 {
        clip-path: url(#clip-path);
      }
    </style>
    <clipPath id="clip-path">
      <rect class="cls-1" x="5.9861" y="16.485" width="39.013" height="15.03"/>
    </clipPath>
  </defs>
  <g>
    <path class="cls-2" d="M13.2988,20.3185l2.075,5.166h-4.151Zm-1.478-3.064-5.835,13.491H9.09l1.161-2.891h6.077l1.159,2.891h3.18l-5.854-13.491Z"/>
    <g class="cls-3">
      <path class="cls-2" d="M27.8287,28.1819a4.3249,4.3249,0,0,0,3.133-1.127A4.0481,4.0481,0,0,0,32.1307,24a4.0458,4.0458,0,0,0-1.169-3.054,4.3212,4.3212,0,0,0-3.133-1.128h-2.767v8.364Zm-5.797-10.927h5.947a8.15,8.15,0,0,1,3.768.838,6.1638,6.1638,0,0,1,2.544,2.361A6.8028,6.8028,0,0,1,35.1977,24a6.8,6.8,0,0,1-.907,3.546,6.1638,6.1638,0,0,1-2.544,2.361,8.15,8.15,0,0,1-3.768.838h-5.947Z"/>
      <path class="cls-2" d="M41.5182,31.515a.7695.7695,0,0,1-.552-1.306,8.9759,8.9759,0,0,0,0-12.418.7694.7694,0,1,1,1.104-1.072,10.5142,10.5142,0,0,1,0,14.562.7632.7632,0,0,1-.552.234"/>
      <path class="cls-2" d="M39.3364,29.2666a.7695.7695,0,0,1-.552-1.306,5.7276,5.7276,0,0,0,0-7.921.7694.7694,0,1,1,1.104-1.072,7.2658,7.2658,0,0,1,0,10.065.7632.7632,0,0,1-.552.234"/>
      <path class="cls-2" d="M37.1546,27.0182a.7695.7695,0,0,1-.552-1.306,2.4805,2.4805,0,0,0,0-3.425.7694.7694,0,1,1,1.104-1.072,4.0162,4.0162,0,0,1,0,5.569.7632.7632,0,0,1-.552.234"/>
    </g>
  </g>
</svg>
