<svg id="Warstwa_1" data-name="Warstwa 1" xmlns="http://www.w3.org/2000/svg" xmlns:xlink="http://www.w3.org/1999/xlink" viewBox="0 0 48 48">
  <defs>
    <style>
      .cls-1 {
        fill: none;
      }

      .cls-2 {
        clip-path: url(#clip-path);
      }

      .cls-3 {
        fill: #1d1d1b;
      }
    </style>
    <clipPath id="clip-path">
      <rect class="cls-1" x="7.658" width="32.684" height="48"/>
    </clipPath>
  </defs>
  <g class="cls-2">
    <path class="cls-3" d="M25.9907,45.6181a.746.746,0,0,0,.746-.746v-4.228a.746.746,0,1,0-1.492,0v4.228a.746.746,0,0,0,.746.746"/>
    <path class="cls-3" d="M28.6208,45.6181a.746.746,0,0,0,.746-.746v-4.228a.746.746,0,0,0-1.492,0v4.228a.746.746,0,0,0,.746.746"/>
    <path class="cls-3" d="M34.1594,41.39a1.368,1.368,0,1,1-1.368,1.368,1.37,1.37,0,0,1,1.368-1.368m0,4.228a2.86,2.86,0,1,0-2.86-2.86,2.8633,2.8633,0,0,0,2.86,2.86"/>
    <path class="cls-3" d="M20.3275,40.0834a1.0759,1.0759,0,0,1,1.075-1.075h16.038a1.0759,1.0759,0,0,1,1.075,1.075v5.35a1.0759,1.0759,0,0,1-1.075,1.075H21.4025a1.0759,1.0759,0,0,1-1.075-1.075Zm15.541-14.27a1.7341,1.7341,0,0,1-.651-.731,2.965,2.965,0,0,1-.272-1.32v-6.258a2.9575,2.9575,0,0,1,.272-1.319,1.7267,1.7267,0,0,1,.65-.731,2.1983,2.1983,0,0,1,2.061-.001,1.7289,1.7289,0,0,1,.65.732,2.9439,2.9439,0,0,1,.272,1.319v6.258a2.9439,2.9439,0,0,1-.272,1.319,1.7289,1.7289,0,0,1-.65.732,2.2,2.2,0,0,1-2.06,0m-23.736-10.36a1.7289,1.7289,0,0,1,.65.732,2.9439,2.9439,0,0,1,.272,1.319v6.258a2.9439,2.9439,0,0,1-.272,1.319,1.7289,1.7289,0,0,1-.65.732,1.9244,1.9244,0,0,1-1.03.256,1.922,1.922,0,0,1-1.03-.256,1.731,1.731,0,0,1-.651-.732,2.9575,2.9575,0,0,1-.272-1.319v-6.258a2.9575,2.9575,0,0,1,.272-1.319,1.7267,1.7267,0,0,1,.65-.731,1.9192,1.9192,0,0,1,1.031-.257,1.9244,1.9244,0,0,1,1.03.256m-.184,19.242h18.259a7.4422,7.4422,0,0,0,7.43-7.201,3.1753,3.1753,0,0,0,1.071-.41,3.2125,3.2125,0,0,0,1.206-1.339,4.403,4.403,0,0,0,.428-1.983v-6.258a4.403,4.403,0,0,0-.428-1.983,3.2038,3.2038,0,0,0-1.206-1.338,3.1693,3.1693,0,0,0-1.072-.411,15.5949,15.5949,0,0,0-1.008-5.393,13.1256,13.1256,0,0,0-2.855-4.474,12.87,12.87,0,0,0-4.339-2.885A14.334,14.334,0,0,0,23.9915,0a14.2783,14.2783,0,0,0-5.425,1.02,12.78,12.78,0,0,0-4.332,2.886,13.2875,13.2875,0,0,0-2.852,4.471,15.4787,15.4787,0,0,0-1.019,5.395,3.16,3.16,0,0,0-2.277,1.749,4.39,4.39,0,0,0-.429,1.983v6.258a4.39,4.39,0,0,0,.429,1.983,3.21,3.21,0,0,0,1.205,1.339,3.3923,3.3923,0,0,0,1.811.477,3.3887,3.3887,0,0,0,1.81-.477,3.2059,3.2059,0,0,0,1.206-1.339,4.403,4.403,0,0,0,.428-1.983v-1.681a2.0318,2.0318,0,0,0,.198.917,1.4863,1.4863,0,0,0,.558.62,1.6974,1.6974,0,0,0,1.675,0,1.4863,1.4863,0,0,0,.558-.62,2.0318,2.0318,0,0,0,.198-.917v-2.896a2.0318,2.0318,0,0,0-.198-.917,1.4776,1.4776,0,0,0-.558-.619,1.6974,1.6974,0,0,0-1.675,0,1.4776,1.4776,0,0,0-.558.619,2.0318,2.0318,0,0,0-.198.917v-1.681a4.403,4.403,0,0,0-.428-1.983,3.1972,3.1972,0,0,0-1.206-1.338,3.1339,3.1339,0,0,0-1.057-.407,13.9612,13.9612,0,0,1,.915-4.852A11.829,11.829,0,0,1,15.3,4.95a11.29,11.29,0,0,1,3.83-2.549,12.7979,12.7979,0,0,1,4.862-.91,12.8377,12.8377,0,0,1,4.879.91,11.3925,11.3925,0,0,1,3.841,2.55,11.6439,11.6439,0,0,1,2.527,3.971,14.098,14.098,0,0,1,.907,4.854,3.1473,3.1473,0,0,0-1.058.407,3.2016,3.2016,0,0,0-1.205,1.338,4.39,4.39,0,0,0-.429,1.983v1.681a2.0318,2.0318,0,0,0-.198-.917,1.4819,1.4819,0,0,0-.557-.619,1.6993,1.6993,0,0,0-1.676,0,1.4776,1.4776,0,0,0-.558.619,2.0318,2.0318,0,0,0-.198.917v2.896a2.0318,2.0318,0,0,0,.198.917,1.4863,1.4863,0,0,0,.558.62,1.6993,1.6993,0,0,0,1.676,0,1.4907,1.4907,0,0,0,.557-.62,2.0318,2.0318,0,0,0,.198-.917v1.681a4.39,4.39,0,0,0,.429,1.983,3.21,3.21,0,0,0,1.205,1.339,3.1655,3.1655,0,0,0,1.059.407,5.9508,5.9508,0,0,1-5.939,5.712H11.9485a3.6417,3.6417,0,0,0-3.637,3.637v3.027a3.6417,3.6417,0,0,0,3.637,3.637h6.887v1.929A2.57,2.57,0,0,0,21.4025,48h16.038a2.57,2.57,0,0,0,2.567-2.567v-5.35a2.57,2.57,0,0,0-2.567-2.567H21.4025a2.57,2.57,0,0,0-2.567,2.567v1.929h-6.887a2.1471,2.1471,0,0,1-2.145-2.145V36.84a2.1471,2.1471,0,0,1,2.145-2.145"/>
    <path class="cls-3" d="M23.3608,45.6181a.746.746,0,0,0,.746-.746v-4.228a.746.746,0,0,0-1.492,0v4.228a.746.746,0,0,0,.746.746"/>
  </g>
</svg>
