<svg id="Warstwa_1" data-name="Warstwa 1" xmlns="http://www.w3.org/2000/svg" xmlns:xlink="http://www.w3.org/1999/xlink" viewBox="0 0 48 48">
  <defs>
    <style>
      .cls-1 {
        fill: none;
      }

      .cls-2 {
        clip-path: url(#clip-path);
      }

      .cls-3 {
        fill: #1d1d1b;
      }
    </style>
    <clipPath id="clip-path">
      <rect class="cls-1" x="9.8975" width="28.205" height="48"/>
    </clipPath>
  </defs>
  <g class="cls-2">
    <path class="cls-3" d="M35.0419,38.651l2.711-2.711a1.1932,1.1932,0,1,0-1.688-1.687l-2.71,2.711-2.711-2.711a1.1932,1.1932,0,0,0-1.688,1.687l2.711,2.711-2.711,2.711a1.1932,1.1932,0,1,0,1.688,1.687l2.711-2.711,2.71,2.711a1.1932,1.1932,0,1,0,1.688-1.687Z"/>
    <path class="cls-3" d="M24.479,40.4911v-3.68a1.9846,1.9846,0,0,1,0,3.68m-1.492,5.51a.5043.5043,0,0,1-.806.405l-4.895-4.112-.021-.017a1.9622,1.9622,0,0,0-.483-.276V35.3a1.9622,1.9622,0,0,0,.483-.276l4.916-4.128a.5036.5036,0,0,1,.806.404ZM11.389,41.35v-5.398a.5055.5055,0,0,1,.505-.505h3.397v6.407H11.894a.5047.5047,0,0,1-.505-.504m13.09-6.096V31.3a1.9962,1.9962,0,0,0-3.225-1.573l-4.915,4.128a.5084.5084,0,0,1-.303.101H11.894a1.9986,1.9986,0,0,0-1.997,1.996V41.35a1.9992,1.9992,0,0,0,1.997,1.996h4.142a.5074.5074,0,0,1,.303.1l4.894,4.112.021.016a1.9955,1.9955,0,0,0,3.225-1.573v-3.953a3.4777,3.4777,0,0,0,0-6.794"/>
    <path class="cls-3" d="M23.7763,1.4915a12.387,12.387,0,1,1-12.387,12.387,12.4013,12.4013,0,0,1,12.387-12.387m0,26.266a13.8785,13.8785,0,1,0-13.879-13.879,13.8946,13.8946,0,0,0,13.879,13.879"/>
    <path class="cls-3" d="M23.7763,6.4724a.746.746,0,0,0,.746-.746V3.3094a.746.746,0,0,0-1.492,0v2.417a.746.746,0,0,0,.746.746"/>
    <path class="cls-3" d="M24.546,14.1274h9.385a.7707.7707,0,0,0,.766-.83,11.4966,11.4966,0,0,0-5.055-8.719.7705.7705,0,0,0-1.1.254l-4.663,8.144a.7691.7691,0,0,0,.667,1.151"/>
    <path class="cls-3" d="M23.7763,25.1937a.746.746,0,0,0,.746-.746v-2.417a.746.746,0,1,0-1.492,0v2.417a.746.746,0,0,0,.746.746"/>
    <path class="cls-3" d="M16.37,13.8787a.746.746,0,0,0-.746-.746H13.207a.746.746,0,1,0,0,1.492h2.417a.746.746,0,0,0,.746-.746"/>
  </g>
</svg>
