<svg id="Warstwa_1" data-name="Warstwa 1" xmlns="http://www.w3.org/2000/svg" xmlns:xlink="http://www.w3.org/1999/xlink" viewBox="0 0 48 48">
  <defs>
    <style>
      .cls-1 {
        fill: none;
      }

      .cls-2 {
        clip-path: url(#clip-path);
      }

      .cls-3 {
        fill: #1d1d1b;
      }
    </style>
    <clipPath id="clip-path">
      <rect class="cls-1" x="7.4175" y="4.459" width="33.165" height="39.082"/>
    </clipPath>
  </defs>
  <g class="cls-2">
    <path class="cls-3" d="M11.8786,42.002h16.016V36.873c-2.263.003-4.801.003-5.767-.007a3.9516,3.9516,0,0,1-3.951-2.649.77.77,0,1,1,1.454-.505,2.4618,2.4618,0,0,0,2.513,1.615c1.602.017,7.574.004,9.366,0,2.093-.005,2.987-.904,2.99-3.007.001-1.183.001-2.366,0-3.596V27.706a1.4254,1.4254,0,0,1,1.424-1.426h.007c.474.003,1.355.008,1.592-.004a1.6052,1.6052,0,0,0,1.328-.639,1.5286,1.5286,0,0,0,.042-1.406c-.225-.575-.868-2.071-1.549-3.655-.898-2.089-1.916-4.457-2.29-5.445a14.2363,14.2363,0,0,0-9.593-8.62A13.3673,13.3673,0,0,0,13.4266,8.89c-4.745,3.817-5.942,12.692-2.463,18.262a5.8554,5.8554,0,0,1,.919,3.368c-.04,2.792-.014,9.348-.004,11.482M28.01,43.541H11.7646a1.4272,1.4272,0,0,1-1.425-1.417c-.009-2.004-.037-8.768.004-11.626a4.3366,4.3366,0,0,0-.686-2.53,16.5544,16.5544,0,0,1-2.08-10.789,14.5978,14.5978,0,0,1,4.884-9.489,14.8926,14.8926,0,0,1,13.403-2.665,15.7794,15.7794,0,0,1,10.629,9.561c.361.956,1.372,3.308,2.264,5.382.716,1.666,1.335,3.104,1.569,3.703a3.017,3.017,0,0,1-.184,2.803,3.1328,3.1328,0,0,1-2.545,1.34c-.244.012-.868.01-1.558.006v.904c0,1.23,0,2.414-.001,3.597-.004,2.967-1.569,4.538-4.526,4.545-.463.001-1.205.003-2.079.005v5.245a1.4261,1.4261,0,0,1-1.424,1.425"/>
  </g>
  <polygon class="cls-3" points="25.955 18.545 25.955 29.455 23.882 29.455 18.443 22.832 18.443 29.455 15.95 29.455 15.95 18.545 18.038 18.545 23.462 25.169 23.462 18.545 25.955 18.545"/>
  <rect class="cls-3" x="28.5422" y="18.5455" width="2.525" height="10.909"/>
</svg>
