<svg id="Warstwa_1" data-name="Warstwa 1" xmlns="http://www.w3.org/2000/svg" xmlns:xlink="http://www.w3.org/1999/xlink" viewBox="0 0 48 48">
  <defs>
    <style>
      .cls-1 {
        fill: none;
      }

      .cls-2 {
        clip-path: url(#clip-path);
      }

      .cls-3 {
        fill: #1d1d1b;
      }
    </style>
    <clipPath id="clip-path">
      <rect class="cls-1" x="4.856" width="38.288" height="48"/>
    </clipPath>
  </defs>
  <g class="cls-2">
    <path class="cls-3" d="M37.8131,1.5386a3.7925,3.7925,0,1,0,3.792,3.793,3.797,3.797,0,0,0-3.792-3.793m0,9.124a5.3315,5.3315,0,1,1,5.331-5.331,5.3371,5.3371,0,0,1-5.331,5.331"/>
    <path class="cls-3" d="M27.8225,38.351l2.526,2.527a13.2212,13.2212,0,0,0,2.411-7.599,13.06,13.06,0,0,0-1.293-5.701.771.771,0,0,1,.655-1.102l4.499-.226a.77.77,0,0,1,.806.829c-.007.09-.705,8.977-.88,10.945a1.9954,1.9954,0,0,0,1.574,2.125,2.2249,2.2249,0,0,0,1.717-.326,1.2744,1.2744,0,0,0,.514-.949c.145-1.673,1.067-12.697,1.237-14.764a2.0772,2.0772,0,0,0-.313-1.573,1.2289,1.2289,0,0,0-.967-.284c-1.192.046-11.125.439-11.125.439a.7692.7692,0,0,1-.609-1.275s3.571-4.084,5.166-5.905a2.6667,2.6667,0,0,0,.837-2.096,2.323,2.323,0,0,0-1.235-1.494l-5.527-3.19a10.6733,10.6733,0,0,0-8.734-.833,15.315,15.315,0,0,0-8.403,7.002,1.5859,1.5859,0,0,0,.514,2.251c.939.529,1.685-.164,2.146-.838,2.529-3.699,7.797-6.653,11.064-5.068a.77.77,0,0,1,.241,1.201s-5.567,6.325-6.652,7.556a.7719.7719,0,0,1-.459.251,13.1392,13.1392,0,0,0-5.554,2.254l2.526,2.526a9.681,9.681,0,0,1,13.318,13.317m2.607,4.465a.7733.7733,0,0,1-.544-.225l-3.597-3.597a.77.77,0,0,1-.082-.992,8.14,8.14,0,0,0-11.352-11.353.77.77,0,0,1-.992-.081l-3.597-3.597a.769.769,0,0,1,.061-1.142,14.6929,14.6929,0,0,1,6.692-3.05c1.058-1.201,4.161-4.726,5.652-6.42-2.423-.189-6.056,1.891-8.061,4.823-1.115,1.631-2.714,2.133-4.173,1.311a3.1052,3.1052,0,0,1-1.151-4.247,17.0215,17.0215,0,0,1,9.319-7.81,12.3144,12.3144,0,0,1,9.958.95l.015.009,5.535,3.195a3.7238,3.7238,0,0,1,1.983,2.575,4.11,4.11,0,0,1-1.197,3.361c-1.007,1.15-2.802,3.202-3.989,4.558,2.918-.116,8.468-.335,9.339-.369a2.71,2.71,0,0,1,2.139.757,3.4417,3.4417,0,0,1,.735,2.764c-.17,2.068-1.092,13.097-1.238,14.771a2.792,2.792,0,0,1-1.12,2.045,3.7491,3.7491,0,0,1-2.938.607,3.5063,3.5063,0,0,1-2.813-3.771c.142-1.593.629-7.755.81-10.057l-2.515.127a14.5906,14.5906,0,0,1,.99,5.321,14.75,14.75,0,0,1-3.271,9.251.77.77,0,0,1-.558.285c-.013.001-.027.001-.04.001"/>
    <path class="cls-3" d="M8.7444,25.765a13.0271,13.0271,0,0,0-2.349,7.514,13.197,13.197,0,0,0,13.182,13.182,13.028,13.028,0,0,0,7.514-2.35l-2.533-2.532a9.6809,9.6809,0,0,1-13.281-13.282ZM19.5774,48A14.7379,14.7379,0,0,1,4.8564,33.279a14.5634,14.5634,0,0,1,3.202-9.166.77.77,0,0,1,1.146-.065l3.601,3.601a.7692.7692,0,0,1,.087.985,8.14,8.14,0,0,0,11.33,11.329.77.77,0,0,1,.984.087l3.602,3.602a.77.77,0,0,1-.065,1.146A14.5634,14.5634,0,0,1,19.5774,48"/>
  </g>
</svg>
