<svg id="Warstwa_1" data-name="Warstwa 1" xmlns="http://www.w3.org/2000/svg" xmlns:xlink="http://www.w3.org/1999/xlink" viewBox="0 0 48 48">
  <defs>
    <style>
      .cls-1 {
        fill: none;
      }

      .cls-2 {
        clip-path: url(#clip-path);
      }

      .cls-3 {
        fill: #1d1d1b;
      }
    </style>
    <clipPath id="clip-path">
      <rect class="cls-1" width="48" height="48"/>
    </clipPath>
  </defs>
  <g class="cls-2">
    <path class="cls-3" d="M38.0553,12.9245h0a4.9569,4.9569,0,0,0-1.322.197A59.9728,59.9728,0,0,1,24,14.88a59.9809,59.9809,0,0,1-12.734-1.758,4.9512,4.9512,0,0,0-1.322-.197,2.6451,2.6451,0,0,0-2.379,3.999,3.66,3.66,0,0,0,2.426,1.556q.606.126,1.213.253c2.094.439,4.258.893,6.422,1.237a2.6212,2.6212,0,0,1,1.665.664,3.4956,3.4956,0,0,1,.167,1.45c0,.188.001.372.002.556a19.27,19.27,0,0,1-.529,5.107l-.263,1.162c-.663,2.934-1.572,6.952-2.369,10.282a3.3186,3.3186,0,0,0,.295,2.721,2.5615,2.5615,0,0,0,1.799,1.096,2.97,2.97,0,0,0,.467.038c.524,0,2.277-.191,2.812-2.642.163-.744,1.491-6.735,2.285-10.314.015-.065.029-.128.043-.191.011.049.022.099.033.149.797,3.594,2.131,9.609,2.294,10.356.536,2.451,2.288,2.642,2.813,2.642a2.98,2.98,0,0,0,.467-.038,2.5614,2.5614,0,0,0,1.798-1.096,3.3186,3.3186,0,0,0,.295-2.721c-.797-3.33-1.705-7.347-2.369-10.28l-.263-1.164a19.3123,19.3123,0,0,1-.529-5.107c.002-.184.003-.368.003-.556a3.4956,3.4956,0,0,1,.167-1.45,2.6177,2.6177,0,0,1,1.664-.664c2.165-.344,4.329-.798,6.422-1.237q.6075-.126,1.214-.253a3.6625,3.6625,0,0,0,2.426-1.556,2.6463,2.6463,0,0,0-2.38-3.999Zm0,1.539a1.081,1.081,0,0,1,1.171.8c.262.931-.634,1.522-1.53,1.709-2.516.522-5.029,1.073-7.564,1.476-3.121.496-3.13,1.972-3.13,3.635a22.0087,22.0087,0,0,0,.565,6.003c.657,2.903,1.723,7.649,2.636,11.462.3,1.253-.054,1.813-.839,1.939a1.4576,1.4576,0,0,1-.224.018c-.662,0-1.108-.511-1.309-1.43-.223-1.02-2.603-11.745-2.876-12.981s-.682-1.42-.955-1.42-.682.184-.955,1.42-2.654,11.961-2.877,12.981c-.201.919-.647,1.43-1.308,1.43a1.48,1.48,0,0,1-.225-.018c-.785-.126-1.139-.686-.839-1.939.913-3.813,1.979-8.559,2.637-11.462a22.04,22.04,0,0,0,.564-6.003c0-1.663-.008-3.139-3.129-3.635-2.536-.403-5.049-.954-7.564-1.476-.897-.187-1.793-.778-1.531-1.709a1.0817,1.0817,0,0,1,1.171-.8,3.5574,3.5574,0,0,1,.914.142A61.1822,61.1822,0,0,0,24,16.4185a61.1743,61.1743,0,0,0,13.141-1.813,3.5574,3.5574,0,0,1,.914-.142"/>
    <path class="cls-3" d="M24,4.9553a4.226,4.226,0,1,0,4.226,4.226A4.2311,4.2311,0,0,0,24,4.9553m0,1.539a2.687,2.687,0,1,1-2.687,2.687A2.687,2.687,0,0,1,24,6.4943"/>
    <path class="cls-3" d="M24,0A24,24,0,1,0,48,24,24,24,0,0,0,24,0m0,1.539a22.4605,22.4605,0,0,1,15.882,38.343A22.4605,22.4605,0,1,1,8.118,8.1184,22.3111,22.3111,0,0,1,24,1.5394"/>
  </g>
</svg>
