<svg id="Warstwa_1" data-name="Warstwa 1" xmlns="http://www.w3.org/2000/svg" xmlns:xlink="http://www.w3.org/1999/xlink" viewBox="0 0 48 48">
  <defs>
    <style>
      .cls-1 {
        fill: none;
      }

      .cls-2 {
        clip-path: url(#clip-path);
      }

      .cls-3 {
        fill: #1d1d1b;
      }
    </style>
    <clipPath id="clip-path">
      <rect class="cls-1" x="7.4175" y="4.459" width="33.165" height="39.082"/>
    </clipPath>
  </defs>
  <g class="cls-2">
    <path class="cls-3" d="M11.8786,42.002h16.016V36.873c-2.26.003-4.794.003-5.767-.007a3.95,3.95,0,0,1-3.951-2.649.77.77,0,1,1,1.454-.505,2.4618,2.4618,0,0,0,2.513,1.615c1.655.017,8.092.003,9.366,0,2.093-.005,2.987-.904,2.99-3.007.001-1.183.001-2.366,0-3.596V27.706a1.4238,1.4238,0,0,1,1.432-1.425c.473.002,1.353.007,1.591-.005a1.6052,1.6052,0,0,0,1.328-.639,1.5286,1.5286,0,0,0,.042-1.406c-.225-.575-.868-2.071-1.549-3.656-.898-2.089-1.916-4.456-2.29-5.444a14.2363,14.2363,0,0,0-9.593-8.62A13.3662,13.3662,0,0,0,13.4266,8.89c-4.744,3.817-5.942,12.692-2.463,18.263a5.85,5.85,0,0,1,.919,3.367c-.04,2.792-.014,9.348-.004,11.482M28.01,43.541H11.7646a1.4272,1.4272,0,0,1-1.425-1.417c-.009-2.004-.037-8.768.004-11.626a4.3366,4.3366,0,0,0-.686-2.53,16.5544,16.5544,0,0,1-2.08-10.789,14.5978,14.5978,0,0,1,4.884-9.489,14.8914,14.8914,0,0,1,13.403-2.665,15.7817,15.7817,0,0,1,10.629,9.561c.361.956,1.372,3.307,2.264,5.381.716,1.666,1.335,3.105,1.569,3.704a3.02,3.02,0,0,1-.183,2.803,3.1362,3.1362,0,0,1-2.546,1.34c-.244.012-.868.01-1.559.007l.001.903c0,1.23,0,2.414-.001,3.597-.004,2.967-1.569,4.538-4.526,4.545-.463.001-1.205.003-2.079.005v5.246a1.4259,1.4259,0,0,1-1.424,1.424"/>
  </g>
  <path class="cls-3" d="M25.1647,25.2l-1.679-4.176L21.8067,25.2Zm.771,1.917h-4.915l-.938,2.338h-2.51l4.718-10.909h2.42l4.733,10.909h-2.57Z"/>
</svg>
