<svg id="Warstwa_1" data-name="Warstwa 1" xmlns="http://www.w3.org/2000/svg" xmlns:xlink="http://www.w3.org/1999/xlink" viewBox="0 0 48 48">
  <defs>
    <style>
      .cls-1 {
        fill: none;
      }

      .cls-2 {
        clip-path: url(#clip-path);
      }

      .cls-3 {
        fill: #1d1d1b;
      }
    </style>
    <clipPath id="clip-path">
      <rect class="cls-1" x="2.3362" width="42.995" height="48"/>
    </clipPath>
  </defs>
  <g class="cls-2">
    <path class="cls-3" d="M19.99,15.98a1.4307,1.4307,0,0,0-1.419-1.48,1.4636,1.4636,0,0,0-1.483,1.429,1.44,1.44,0,0,0,1.43,1.473A1.4155,1.4155,0,0,0,19.99,15.98"/>
    <path class="cls-3" d="M25.8141,17.402a1.4513,1.4513,0,0,0,.053-2.902,1.4615,1.4615,0,0,0-1.483,1.428,1.4413,1.4413,0,0,0,1.43,1.474"/>
    <path class="cls-3" d="M19.5523,19.75a.6191.6191,0,0,0-1.182.369,3.6978,3.6978,0,0,0,.303.698,3.7539,3.7539,0,0,0,1.977,1.659,4.3879,4.3879,0,0,0,3.074,0,3.7615,3.7615,0,0,0,1.977-1.659,3.6927,3.6927,0,0,0,.302-.698.6191.6191,0,0,0-1.182-.369,2.4554,2.4554,0,0,1-.202.464,2.5229,2.5229,0,0,1-1.351,1.111,3.1546,3.1546,0,0,1-2.162,0,2.5281,2.5281,0,0,1-1.352-1.11,2.4917,2.4917,0,0,1-.202-.465"/>
    <path class="cls-3" d="M43.399,38.5042a10.2387,10.2387,0,0,1-1.111.326l-.178.045c-.556.143-1.124.278-1.674.409l-.386.092a.4909.4909,0,0,1-.501-.185.4336.4336,0,0,1-.045-.395.51.51,0,0,1,.31-.317.6566.6566,0,0,0,.091-.034c.52-.156,1.159-.362,1.195-.374a.6189.6189,0,0,0-.38-1.178c-.011.004-1.147.37-1.59.487l-.08.021c-.155.041-.31.082-.467.124a1.0635,1.0635,0,0,1-.137.03.4677.4677,0,0,1-.523-.347.4414.4414,0,0,1,.312-.538l.112-.03,2.181-.642a.6191.6191,0,0,0-.349-1.188l-2.161.636c-.032.009-.064.018-.096.026-.013.003-.026.007-.04.011l-.706.189a.5707.5707,0,0,1-.555-.157.4625.4625,0,0,1-.065-.433.477.477,0,0,1,.336-.297.448.448,0,0,0,.062-.02c.074-.016.141-.034.196-.049l2.814-.811a.6187.6187,0,1,0-.343-1.189l-2.803.807a1.9513,1.9513,0,0,1-.2.047.6264.6264,0,0,1-.614-.281.5485.5485,0,0,1-.01-.475.501.501,0,0,1,.385-.332c.176-.048,1.002-.283,2.048-.58,1.42-.404,3.188-.907,3.689-1.042.45-.12.678.539.755.828.194.721,1.002,3.738,1.213,4.526a3.96,3.96,0,0,1-.685,2.29m-6.923,4.202a1.164,1.164,0,0,1-.883,1.131l-11.507,2.889a1.1671,1.1671,0,0,1-1.451-1.132V27.5082a1.1651,1.1651,0,0,1,.883-1.132l11.507-2.888a1.1658,1.1658,0,0,1,1.451,1.131v6.55c-.21.059-.358.101-.417.117a1.7267,1.7267,0,0,0-1.198,1.03,1.7757,1.7757,0,0,0,.049,1.552,1.7414,1.7414,0,0,0,.558.615,1.5607,1.5607,0,0,0-.076.178,1.6912,1.6912,0,0,0,.215,1.564,1.6655,1.6655,0,0,0,.869.613Zm-15.079,2.888a1.1668,1.1668,0,0,1-1.45,1.132L8.439,43.8372a1.1642,1.1642,0,0,1-.882-1.131v-2.089a1.5962,1.5962,0,0,0,.169.01,1.7049,1.7049,0,0,0,1.441-.778,1.6807,1.6807,0,0,0,.256-1.058,1.6943,1.6943,0,0,0,1.531-1.318,1.7588,1.7588,0,0,0,.03-.58,1.6759,1.6759,0,0,0,1.292-2.232,1.5607,1.5607,0,0,0-.076-.178,1.7414,1.7414,0,0,0,.558-.615,1.7758,1.7758,0,0,0,.048-1.552,1.7232,1.7232,0,0,0-1.197-1.03c-.167-.045-1.03-.291-2.03-.575-.653-.186-1.378-.392-2.022-.575v-5.517a1.167,1.167,0,0,1,1.164-1.167,1.1816,1.1816,0,0,1,.287.036l11.507,2.888a1.1653,1.1653,0,0,1,.882,1.132Zm-15.84-6.719-.178-.045a10.451,10.451,0,0,1-1.11-.326,3.953,3.953,0,0,1-.685-2.29c.21-.788,1.019-3.805,1.212-4.526.078-.289.306-.947.755-.828.502.135,2.269.638,3.689,1.042,1.046.297,1.873.532,2.049.579a.5006.5006,0,0,1,.384.334.5363.5363,0,0,1-.009.474.629.629,0,0,1-.615.281,1.8871,1.8871,0,0,1-.188-.044l-2.814-.81a.6187.6187,0,1,0-.343,1.189l2.825.814c.048.013.112.03.185.046a.435.435,0,0,0,.061.02.4786.4786,0,0,1,.337.297.4629.4629,0,0,1-.066.433.5681.5681,0,0,1-.554.157l-.707-.189c-.013-.004-.026-.008-.039-.011-.032-.008-.064-.017-.096-.026L7.489,34.81a.6192.6192,0,0,0-.35,1.188l2.168.638.014.004.112.03a.44.44,0,0,1,.312.536.4686.4686,0,0,1-.522.349.9886.9886,0,0,1-.14-.031l-.464-.123-.081-.021c-.443-.117-1.579-.483-1.591-.487a.6187.6187,0,1,0-.379,1.178c.035.012.675.218,1.194.374a.7082.7082,0,0,0,.091.034.5092.5092,0,0,1,.311.317.44.44,0,0,1-.045.395.4916.4916,0,0,1-.501.185l-.387-.092c-.52-.124-1.11-.265-1.674-.409M14.955,18.6c-.161-.355-.369-.824-.547-1.308a1.8059,1.8059,0,0,0-1.386-.976,1.189,1.189,0,0,1-1.058-1.465.744.744,0,0,1,.119-.342c.075-.087.151-.178.225-.273.276-.016.676-.042.925-.077a3.1,3.1,0,0,0,2.618-1.984,5.0765,5.0765,0,0,0,.354-1.272c.095-.841.158-1.694.218-2.518l.034-.461a.5135.5135,0,0,1,.027-.143l.013-.004a.3414.3414,0,0,1,.085.116l.048.094c.131.258.267.525.42.787a5.1853,5.1853,0,0,0,4.73,2.74h.053a22.187,22.187,0,0,0,2.665-.232c.233-.03.467-.06.7-.088a13.0229,13.0229,0,0,1,2.687-.108,4.4966,4.4966,0,0,1,3.743,2.4,3.4192,3.4192,0,0,0,.663,1.024.7344.7344,0,0,1,.119.341,1.189,1.189,0,0,1-1.058,1.465,1.8029,1.8029,0,0,0-1.385.976c-.179.484-.387.953-.548,1.308a15.65,15.65,0,0,1-3.085,4.772,5.651,5.651,0,0,1-4.068,1.846c-.023,0-.047,0-.071-.001h-.016c-.024.001-.048.001-.071.001a5.6565,5.6565,0,0,1-4.068-1.846A15.6308,15.6308,0,0,1,14.955,18.6m-2.072-8.499a9.4554,9.4554,0,0,1,3.845-7.359,8.2679,8.2679,0,0,1,4.18-1.439c.435-.039.865-.061,1.279-.065.414.004.844.026,1.279.065a8.2679,8.2679,0,0,1,4.18,1.439,9.4554,9.4554,0,0,1,3.845,7.359c.035.4.043.803.042,1.215a6.5491,6.5491,0,0,0-3.535-1.462,14.055,14.055,0,0,0-2.946.111c-.237.028-.474.059-.711.089a20.9252,20.9252,0,0,1-2.517.222,3.9807,3.9807,0,0,1-3.706-2.129c-.135-.229-.256-.467-.384-.72l-.048-.095a1.28,1.28,0,0,0-2.464.501l-.034.462c-.059.812-.12,1.652-.213,2.468a3.9566,3.9566,0,0,1-.276.958,1.8562,1.8562,0,0,1-1.635,1.212c-.06.008-.135.016-.217.024v-.001c.005-.345.001-.692-.002-1.027-.008-.634-.014-1.232.038-1.828m27.099,17.761c.051-.707.205-.913.333-1.013a.3788.3788,0,0,1,.416-.049c.223.1.385.172.385.841,0,.699-.022,1.687-.035,2.222-.357.1-.798.224-1.268.358Zm5.298,8.032c-.211-.788-1.02-3.806-1.213-4.527-.289-1.078-.945-1.721-1.742-1.76.013-.563.029-1.367.029-1.966a1.8409,1.8409,0,0,0-1.117-1.971,1.6184,1.6184,0,0,0-1.684.203,2.5133,2.5133,0,0,0-.806,1.901l-.2,2.807c-.156.044-.309.087-.459.13-.127.036-.252.072-.374.107v-6.199a2.4046,2.4046,0,0,0-2.99-2.332l-7.419,1.862a16.97,16.97,0,0,0,3.241-5.037c.168-.371.386-.863.578-1.381a1.0143,1.0143,0,0,1,.479-.203,2.4106,2.4106,0,0,0,2.035-2.835,1.9368,1.9368,0,0,0-.408-.991,2.63,2.63,0,0,1-.429-.613l-.007-.018a.45.45,0,0,1-.029-.135c-.005-.328-.001-.666.002-.993.007-.636.015-1.294-.043-1.95-.324-3.698-1.751-6.399-4.36-8.259A9.4609,9.4609,0,0,0,23.577.07c-.469-.042-.935-.066-1.384-.07h-.012c-.449.004-.915.028-1.384.07a9.4609,9.4609,0,0,0-4.787,1.664c-2.609,1.86-4.035,4.561-4.36,8.259-.058.656-.05,1.314-.043,1.95.004.327.007.665.002.993-.004.231-.315.592-.464.766a1.9309,1.9309,0,0,0-.409.991,2.4106,2.4106,0,0,0,2.035,2.835,1.0143,1.0143,0,0,1,.479.203c.192.519.41,1.01.579,1.381a16.7538,16.7538,0,0,0,3.341,5.141l.011.01-7.872-1.976a2.4046,2.4046,0,0,0-2.99,2.332v5.169c-.191-.054-.345-.096-.447-.124-1.029-.275-1.92.393-2.271,1.703-.194.721-1.002,3.739-1.213,4.527-.251.937.443,3.381,1.402,3.752a10.8778,10.8778,0,0,0,1.284.383l.176.045c.356.092.718.18,1.069.265v2.367a2.4016,2.4016,0,0,0,1.819,2.332l11.507,2.888a2.3882,2.3882,0,0,0,2.065-.436,2.4355,2.4355,0,0,0,.306-.285,2.4444,2.4444,0,0,0,.307.285,2.3861,2.3861,0,0,0,2.064.436l11.508-2.888a2.4016,2.4016,0,0,0,1.819-2.332v-4.043a1.6929,1.6929,0,0,0,.531.128,1.6819,1.6819,0,0,0,.255,1.057,1.7048,1.7048,0,0,0,1.441.779,1.6679,1.6679,0,0,0,.396-.047l.387-.092c.554-.132,1.127-.268,1.693-.413l.176-.045a11.0948,11.0948,0,0,0,1.285-.384c.958-.371,1.653-2.815,1.402-3.752"/>
  </g>
</svg>
