<svg id="Warstwa_1" data-name="Warstwa 1" xmlns="http://www.w3.org/2000/svg" xmlns:xlink="http://www.w3.org/1999/xlink" viewBox="0 0 48 48">
  <defs>
    <style>
      .cls-1 {
        fill: none;
      }

      .cls-2 {
        clip-path: url(#clip-path);
      }

      .cls-3 {
        fill: #1d1d1b;
      }
    </style>
    <clipPath id="clip-path">
      <rect class="cls-1" y="2.2065" width="48" height="43.587"/>
    </clipPath>
  </defs>
  <g>
    <g class="cls-2">
      <path class="cls-3" d="M23.0539,22.5086a1.489,1.489,0,1,1-1.489-1.489,1.4895,1.4895,0,0,1,1.489,1.489"/>
      <path class="cls-3" d="M46.577,24.1126a2.1288,2.1288,0,0,1-2.126,2.126H40.828l-6.843,5.74a.07.07,0,0,1-.043.014.0755.0755,0,0,1-.075-.075v-5.679H29.925c-.264-.623-.598-1.398-.958-2.236-.824-1.916-1.758-4.089-2.092-4.972a14.7307,14.7307,0,0,0-13.569-9.36V5.7556A2.1281,2.1281,0,0,1,15.432,3.63H44.451a2.1288,2.1288,0,0,1,2.126,2.126Zm-17.523,5.133a1.4861,1.4861,0,0,1-1.228.59c-.218.011-1.002.007-1.47.004a1.3162,1.3162,0,0,0-1.324,1.317v1.001c.001.614.001,1.215.001,1.811-.586.003-1.463.004-2.344-.005a2.2765,2.2765,0,0,1-2.323-1.493.7114.7114,0,1,0-1.344.467,3.6528,3.6528,0,0,0,3.652,2.449c.515.005,1.028.007,1.484.007.328,0,.626-.001.874-.002v.03c-.003,1.944-.829,2.775-2.764,2.78-1.655.004-7.17.015-8.656,0a2.2763,2.2763,0,0,1-2.323-1.493.7117.7117,0,0,0-1.345.466,3.6528,3.6528,0,0,0,3.653,2.449c.896.01,3.239.009,5.33.007v4.74H4.124c-.009-1.973-.033-8.035.003-10.612a5.4112,5.4112,0,0,0-.849-3.113c-3.215-5.149-2.109-13.352,2.276-16.88a12.3526,12.3526,0,0,1,11.123-2.199,13.1567,13.1567,0,0,1,8.867,7.967c.346.913,1.286,3.101,2.116,5.031.63,1.465,1.225,2.849,1.433,3.381a1.417,1.417,0,0,1-.039,1.3M44.451,2.2066H15.432a3.5529,3.5529,0,0,0-3.549,3.549v3.977a13.4551,13.4551,0,0,0-7.22,2.924,13.4888,13.4888,0,0,0-4.515,8.771A15.297,15.297,0,0,0,2.071,31.4a4.017,4.017,0,0,1,.634,2.338c-.038,2.638-.012,8.893-.004,10.747a1.319,1.319,0,0,0,1.317,1.309H19.033a1.3187,1.3187,0,0,0,1.317-1.317v-4.848c.808-.002,1.494-.003,1.921-.004,2.734-.007,4.18-1.46,4.184-4.201.001-1.075.001-2.151,0-3.267v-.894c.639.004,1.216.005,1.441-.006a2.8948,2.8948,0,0,0,2.352-1.238,2.7257,2.7257,0,0,0,.251-2.357h1.945v4.256a1.4975,1.4975,0,0,0,2.434,1.169l6.468-5.425h3.105A3.5529,3.5529,0,0,0,48,24.1126V5.7556a3.5529,3.5529,0,0,0-3.549-3.549"/>
      <path class="cls-3" d="M34.1291,14.8519a1.3868,1.3868,0,0,0,.481-1.132,1.3994,1.3994,0,0,0-.481-1.144,2.147,2.147,0,0,0-1.403-.399h-1.669V15.25h1.669a2.1528,2.1528,0,0,0,1.403-.398m.753-3.952a2.93,2.93,0,0,1,1.802,2.82,3.0747,3.0747,0,0,1-.468,1.701,2.9806,2.9806,0,0,1-1.334,1.113,4.99,4.99,0,0,1-2.042.385h-1.783V19.36h-2.049v-8.852H32.84a4.9234,4.9234,0,0,1,2.042.392"/>
    </g>
    <polygon class="cls-3" points="38.139 10.508 40.188 10.508 40.188 17.691 44.625 17.691 44.625 19.36 38.139 19.36 38.139 10.508"/>
  </g>
</svg>
