<svg id="Warstwa_1" data-name="Warstwa 1" xmlns="http://www.w3.org/2000/svg" xmlns:xlink="http://www.w3.org/1999/xlink" viewBox="0 0 48 48">
  <defs>
    <style>
      .cls-1 {
        fill: none;
      }

      .cls-2 {
        clip-path: url(#clip-path);
      }

      .cls-3 {
        fill: #1d1d1b;
      }
    </style>
    <clipPath id="clip-path">
      <rect class="cls-1" x="10.7615" y="5.803" width="26.477" height="36.394"/>
    </clipPath>
  </defs>
  <g class="cls-2">
    <path class="cls-3" d="M22.5311,7.3417a1.4125,1.4125,0,1,0,1.412,1.413,1.4139,1.4139,0,0,0-1.412-1.413m0,4.364a2.9515,2.9515,0,1,1,2.951-2.951,2.9548,2.9548,0,0,1-2.951,2.951"/>
    <path class="cls-3" d="M13.7129,7.3417a1.4125,1.4125,0,1,0,1.412,1.413,1.4139,1.4139,0,0,0-1.412-1.413m0,4.364a2.9515,2.9515,0,1,1,2.952-2.951,2.9546,2.9546,0,0,1-2.952,2.951"/>
    <path class="cls-3" d="M35.6559,23.13c-.027.074-.235.607-.498,1.282-1.962,5.031-3.799,9.788-3.956,10.518-.23,1.077-.492,2.166-.745,3.22l-.009.034q-.14.5805-.277,1.161a1.626,1.626,0,0,1-1.667,1.312l-3.731.001-3.412-.001a1.6772,1.6772,0,0,1-1.618-1.208c-.243-.709-.529-1.438-.874-2.231-.142-.325-1.152-2.319-2.564-5.1-.825-1.625-1.678-3.305-1.755-3.477a.8954.8954,0,0,1,.418-1.247.78.78,0,0,1,.871.163,2.2335,2.2335,0,0,1,.279.42c.19.374,2.005,3.812,2.083,3.958.006.011.014.02.021.031a.8178.8178,0,0,0,.045.069.6328.6328,0,0,0,.047.056.65.65,0,0,0,.052.053.628.628,0,0,0,.058.047c.02.015.04.028.061.041a.5705.5705,0,0,0,.064.035.6073.6073,0,0,0,.07.029.7007.7007,0,0,0,.07.022q.036.009.072.015a.7345.7345,0,0,0,.082.008c.013.001.025.004.038.004.011,0,.02-.003.031-.003a.7837.7837,0,0,0,.082-.008c.024-.004.048-.008.072-.014s.046-.013.069-.021c.027-.01.053-.02.078-.032.009-.004.019-.006.028-.011.011-.006.02-.014.031-.021a.6365.6365,0,0,0,.069-.046c.02-.015.038-.03.056-.046s.036-.034.053-.053a.6467.6467,0,0,0,.047-.057c.015-.02.028-.041.041-.062s.024-.042.035-.064.02-.046.029-.07a.5682.5682,0,0,0,.022-.07c.006-.024.011-.047.015-.072a.74.74,0,0,0,.008-.081c.001-.013.004-.025.004-.038,0-.131.006-13.046.005-13.583a1.0351,1.0351,0,0,1,.404-.832.9614.9614,0,0,1,1.248,0,1.1941,1.1941,0,0,1,.403.85c.008.385.014,6.998.016,10.44l.001.015a.789.789,0,0,0,.009.085c.003.023.004.046.009.068.006.026.015.049.023.074.008.023.014.047.024.069s.023.042.034.063c.013.022.024.045.039.066s.03.037.046.056.031.038.049.056.038.032.057.047.038.031.059.045.042.023.063.034a.6528.6528,0,0,0,.07.035c.021.009.044.014.066.021.027.008.054.016.082.022l.015.004c.021.003.041.002.062.003s.04.007.061.007h.001l.015-.002a.8077.8077,0,0,0,.086-.009c.022-.003.045-.004.066-.009a.6274.6274,0,0,0,.077-.024c.022-.007.045-.014.066-.023.023-.01.045-.024.067-.036s.042-.023.062-.037a.5475.5475,0,0,0,.059-.049c.018-.015.036-.029.053-.046s.033-.04.05-.06c.014-.018.029-.036.042-.055.014-.021.024-.044.036-.066s.024-.044.034-.068a.6552.6552,0,0,0,.02-.067.7444.7444,0,0,0,.022-.081l.004-.015,2.107-12.983a1.1475,1.1475,0,0,1,.54-.741.9608.9608,0,0,1,1.229.217,1.053,1.053,0,0,1,.248.925c-.081.612-1.674,12.521-1.69,12.641a.1082.1082,0,0,0,0,.018.59.59,0,0,0-.003.084c0,.023-.001.047.001.069a.6877.6877,0,0,0,.013.077.5593.5593,0,0,0,.015.071.6845.6845,0,0,0,.026.068.7135.7135,0,0,0,.029.069.5953.5953,0,0,0,.039.063c.013.02.026.041.041.061a.6516.6516,0,0,0,.051.055c.017.017.033.035.051.051s.04.029.06.043a.7145.7145,0,0,0,.064.043c.02.012.042.02.063.03a.7444.7444,0,0,0,.078.031l.016.007c.02.006.04.007.06.011a.527.527,0,0,0,.057.014l.022.002.036.002c.015.001.03.003.045.003s.03-.003.045-.004q.033-.0015.066-.006a.6931.6931,0,0,0,.079-.017c.02-.005.04-.01.06-.017a.7038.7038,0,0,0,.075-.032.4489.4489,0,0,0,.054-.026.6579.6579,0,0,0,.07-.047c.016-.011.032-.022.047-.034a.8471.8471,0,0,0,.067-.067c.011-.012.023-.022.033-.035a.7072.7072,0,0,0,.08-.119c.005-.009.008-.02.013-.03a.7749.7749,0,0,0,.044-.107l.004-.01,2.891-9.747a.9243.9243,0,0,1,.65-.601.9586.9586,0,0,1,1.172.427,1.3917,1.3917,0,0,1,.074.984l-2.64,9.834a.7684.7684,0,0,0,1.454.489l.002.001,3.174-7.795a1.1021,1.1021,0,0,1,.589-.589.83.83,0,0,1,1.017.371,1.0579,1.0579,0,0,1,.082.802m-17.534-6.799a1.4125,1.4125,0,1,1,1.412-1.413,1.4146,1.4146,0,0,1-1.412,1.413m18.768,5.198a2.3684,2.3684,0,0,0-2.828-1.029,2.3733,2.3733,0,0,0-.729.407l.132-.49a2.9209,2.9209,0,0,0-.245-2.183,2.4969,2.4969,0,0,0-2.983-1.086,2.4425,2.4425,0,0,0-1.631,1.621l-.08.269c.204-1.528.357-2.668.38-2.847a2.5478,2.5478,0,0,0-3.743-2.69,2.6771,2.6771,0,0,0-1.32,1.843l-.588,3.623c-.001-.54-.003-.902-.005-.989a2.713,2.713,0,0,0-.979-2.017,2.5756,2.5756,0,0,0-1.243-.541,2.95,2.95,0,1,0-2.906,2.45h.002c-.002.042-.007.083-.007.126,0,.367-.002,6.578-.004,10.472-.308-.585-.56-1.066-.622-1.188a3.88,3.88,0,0,0-.464-.703,2.3162,2.3162,0,0,0-2.767-.55,2.4259,2.4259,0,0,0-1.124,3.223c.07.163.601,1.211,1.796,3.565,1.065,2.098,2.391,4.71,2.526,5.019.329.754.6,1.445.829,2.114a3.1993,3.1993,0,0,0,3.074,2.249h7.143a3.1631,3.1631,0,0,0,3.165-2.497q.1365-.5775.276-1.156l.009-.035c.255-1.062.519-2.161.753-3.256.153-.71,2.962-7.914,3.885-10.282.332-.849.479-1.229.511-1.315a2.6007,2.6007,0,0,0-.213-2.127"/>
  </g>
</svg>
