<svg id="Warstwa_1" data-name="Warstwa 1" xmlns="http://www.w3.org/2000/svg" xmlns:xlink="http://www.w3.org/1999/xlink" viewBox="0 0 48 48">
  <defs>
    <style>
      .cls-1 {
        fill: none;
      }

      .cls-2 {
        clip-path: url(#clip-path);
      }

      .cls-3 {
        fill: #1d1d1b;
      }
    </style>
    <clipPath id="clip-path">
      <rect class="cls-1" width="48" height="48"/>
    </clipPath>
  </defs>
  <g class="cls-2">
    <path class="cls-3" d="M41.5551,36.7292a21.607,21.607,0,0,1-.358,2.201c-.187.872-.399,1.754-.604,2.608l-.006.024c-.075.313-.151.626-.225.94a1.187,1.187,0,0,1-1.231.968h-5.783a1.24,1.24,0,0,1-1.194-.896c-.197-.576-.43-1.17-.711-1.815-.117-.266-.897-1.806-2.074-4.125-.637-1.253-1.358-2.674-1.423-2.819a.6066.6066,0,0,1,.282-.853.4249.4249,0,0,1,.191-.041.4963.4963,0,0,1,.364.142,1.7869,1.7869,0,0,1,.211.318c.077.151.485.935.896,1.72.2.382.396.754.543,1.031.329.621.453.853.907.853h.311l.218-.22c.218-.22.219-.357.223-.936.002-.264.004-.641.005-1.098.003-.91.005-2.136.007-3.402.003-2.354.003-5.19-.002-5.862a.7313.7313,0,0,1,.281-.574.6862.6862,0,0,1,.584-.143.7935.7935,0,0,1,.546.659c.008.083.008.174.008.254v8.046a.746.746,0,0,0,1.492,0v-3.593a.6071.6071,0,0,1,.254-.512.5944.5944,0,0,1,.554-.062.7128.7128,0,0,1,.375.628q.0015.4515.001.903a.4339.4339,0,0,0,0,.051v2.585a.7455.7455,0,1,0,1.491,0v-2.596a.5612.5612,0,0,1,.557-.561.5946.5946,0,0,1,.601.529,1.22,1.22,0,0,1,.009.178l.001.696c.002.59-.004,1.75-.004,1.75l1.492.009s.003-.682.004-1.269l.001-.026a.65.65,0,0,1,.287-.486.5555.5555,0,0,1,.501-.075.6272.6272,0,0,1,.394.555l.013.49c.02.695.04,1.413.047,2.127l.003.228a12.04,12.04,0,0,1-.039,1.471m1.528-1.716c-.008-.726-.028-1.45-.048-2.151l-.013-.489a2.0994,2.0994,0,0,0-1.447-1.94,2.0527,2.0527,0,0,0-1.348.039,2.0751,2.0751,0,0,0-2.049-1.41,2.1437,2.1437,0,0,0-.71.155,2.0461,2.0461,0,0,0-2.455-1.125l-.001-2.429c0-.103,0-.245-.015-.4a2.2782,2.2782,0,0,0-1.698-1.967,2.17,2.17,0,0,0-1.85.434,2.2116,2.2116,0,0,0-.838,1.747c.005.836.004,4.901-.002,7.78-.14-.268-.245-.472-.285-.551a3.2567,3.2567,0,0,0-.391-.592,2.0016,2.0016,0,0,0-2.391-.476,2.0836,2.0836,0,0,0-.966,2.767c.058.135.469.946,1.463,2.904.814,1.604,1.929,3.8,2.036,4.046.265.608.484,1.165.668,1.703a2.7442,2.7442,0,0,0,2.605,1.904h5.784a2.68,2.68,0,0,0,2.681-2.116q.111-.468.224-.936l.006-.023c.207-.863.421-1.755.612-2.644a23.179,23.179,0,0,0,.383-2.354,13.4462,13.4462,0,0,0,.048-1.651Z"/>
    <path class="cls-3" d="M24.7177,16.2244a1.361,1.361,0,1,0-1.361-1.361,1.3606,1.3606,0,0,0,1.361,1.361"/>
    <path class="cls-3" d="M25.36,29.1131c-1.947.004-6.616.013-7.911,0a1.9931,1.9931,0,0,1-2.035-1.3.7456.7456,0,1,0-1.409.488,3.4288,3.4288,0,0,0,3.428,2.303c.797.009,2.854.009,4.778.006v4.142H8.8689c-.008-1.894-.029-7.286.004-9.604a5.03,5.03,0,0,0-.791-2.897c-2.916-4.669-1.915-12.108,2.06-15.306a11.2,11.2,0,0,1,10.083-1.992,11.9323,11.9323,0,0,1,8.041,7.225c.317.836,1.177,2.837,1.936,4.603.575,1.338,1.119,2.602,1.308,3.087a1.2019,1.2019,0,0,1-.026,1.101,1.2656,1.2656,0,0,1-1.047.497c-.199.009-.941.005-1.34.003a1.2991,1.2991,0,0,0-1.305,1.3v2.475c-.532.002-1.287.003-2.046-.005a1.9906,1.9906,0,0,1-2.034-1.3.7457.7457,0,0,0-1.409.489,3.43,3.43,0,0,0,3.428,2.303c.47.004.94.006,1.357.006.258,0,.496,0,.702-.001-.022,1.681-.729,2.373-2.43,2.377m3.923-2.444c.001-.949.001-1.898.001-2.88l-.001-.827c.546.002,1.029.003,1.227-.007a2.741,2.741,0,0,0,2.226-1.175,2.6457,2.6457,0,0,0,.163-2.455c-.198-.508-.721-1.724-1.327-3.133-.753-1.752-1.606-3.737-1.911-4.542a13.4256,13.4256,0,0,0-9.045-8.136,12.6744,12.6744,0,0,0-11.409,2.269c-4.587,3.69-5.726,11.916-2.39,17.258a3.5831,3.5831,0,0,1,.565,2.086c-.035,2.415-.011,8.131-.003,9.825a1.3013,1.3013,0,0,0,1.299,1.292h13.726a1.3008,1.3008,0,0,0,1.299-1.299v-4.337c.645-.001,1.222-.003,1.661-.004,2.561-.006,3.916-1.366,3.919-3.935"/>
    <path class="cls-3" d="M46.509,42.991a3.5209,3.5209,0,0,1-3.518,3.517H5.009a3.52,3.52,0,0,1-3.517-3.517V5.009A3.52,3.52,0,0,1,5.009,1.492H42.991a3.5209,3.5209,0,0,1,3.518,3.517ZM42.991,0H5.009A5.0146,5.0146,0,0,0,0,5.009V42.991A5.0146,5.0146,0,0,0,5.009,48H42.991A5.0146,5.0146,0,0,0,48,42.991V5.009A5.0146,5.0146,0,0,0,42.991,0"/>
  </g>
</svg>
