<svg id="Warstwa_1" data-name="Warstwa 1" xmlns="http://www.w3.org/2000/svg" xmlns:xlink="http://www.w3.org/1999/xlink" viewBox="0 0 48 48">
  <defs>
    <style>
      .cls-1 {
        fill: none;
      }

      .cls-2 {
        clip-path: url(#clip-path);
      }

      .cls-3 {
        fill: #1d1d1b;
      }
    </style>
    <clipPath id="clip-path">
      <rect class="cls-1" x="4.4625" y="7.1175" width="39.075" height="33.765"/>
    </clipPath>
  </defs>
  <g class="cls-2">
    <path class="cls-3" d="M38.9662,30.3594H9.36a.77.77,0,1,1,0-1.539h29.606a.77.77,0,1,1,0,1.539"/>
    <path class="cls-3" d="M38.9662,26.53H9.36a.77.77,0,1,1,0-1.539h29.606a.77.77,0,1,1,0,1.539"/>
    <path class="cls-3" d="M35.16,39.3285a.0771.0771,0,0,0,.047.015.0815.0815,0,0,0,.081-.082v-6.144h4.41a2.3029,2.3029,0,0,0,2.3-2.3v-19.86a2.3023,2.3023,0,0,0-2.3-2.3H8.3022a2.3023,2.3023,0,0,0-2.3,2.3v19.86a2.3029,2.3029,0,0,0,2.3,2.3h19.456Zm.047,1.554a1.6238,1.6238,0,0,1-1.013-.356l-.013-.011-6.984-5.859H8.3022a3.844,3.844,0,0,1-3.84-3.839v-19.86a3.8448,3.8448,0,0,1,3.84-3.84h31.396a3.844,3.844,0,0,1,3.839,3.84v19.86a3.8431,3.8431,0,0,1-3.839,3.839h-2.87v4.605a1.6226,1.6226,0,0,1-1.621,1.621"/>
  </g>
</svg>
