<svg id="Warstwa_1" data-name="Warstwa 1" xmlns="http://www.w3.org/2000/svg" xmlns:xlink="http://www.w3.org/1999/xlink" viewBox="0 0 48 48">
  <defs>
    <style>
      .cls-1 {
        fill: none;
      }

      .cls-2 {
        clip-path: url(#clip-path);
      }

      .cls-3 {
        fill: #1d1d1b;
      }
    </style>
    <clipPath id="clip-path">
      <rect class="cls-1" x="4.2924" y="7.1175" width="39.075" height="33.765"/>
    </clipPath>
  </defs>
  <g>
    <g class="cls-2">
      <path class="cls-3" d="M38.7961,30.3594H9.19a.77.77,0,1,1,0-1.539h29.606a.77.77,0,1,1,0,1.539"/>
      <path class="cls-3" d="M38.7961,26.53H9.19a.77.77,0,1,1,0-1.539h29.606a.77.77,0,1,1,0,1.539"/>
      <path class="cls-3" d="M34.99,39.3275a.0736.0736,0,0,0,.047.016.0815.0815,0,0,0,.081-.082v-6.144h4.41a2.3029,2.3029,0,0,0,2.3-2.3v-19.86a2.3023,2.3023,0,0,0-2.3-2.3H8.1321a2.3023,2.3023,0,0,0-2.3,2.3v19.86a2.3029,2.3029,0,0,0,2.3,2.3h19.456Zm.047,1.555a1.6238,1.6238,0,0,1-1.013-.356l-.013-.011-6.984-5.859H8.1321a3.844,3.844,0,0,1-3.84-3.839v-19.86a3.8448,3.8448,0,0,1,3.84-3.84h31.396a3.844,3.844,0,0,1,3.839,3.84v19.86a3.8431,3.8431,0,0,1-3.839,3.839h-2.87v4.605a1.6226,1.6226,0,0,1-1.621,1.621"/>
    </g>
    <polygon class="cls-3" points="8.257 11.863 10.549 11.863 10.549 19.901 15.516 19.901 15.516 21.769 8.257 21.769 8.257 11.863"/>
    <rect class="cls-3" x="16.8044" y="11.8625" width="2.292" height="9.906"/>
    <polygon class="cls-3" points="30.912 11.863 26.624 21.769 24.36 21.769 20.087 11.863 22.563 11.863 25.577 18.938 28.634 11.863 30.912 11.863"/>
    <polygon class="cls-3" points="39.403 19.929 39.403 21.769 31.733 21.769 31.733 11.863 39.219 11.863 39.219 13.703 34.012 13.703 34.012 15.854 38.611 15.854 38.611 17.637 34.012 17.637 34.012 19.929 39.403 19.929"/>
  </g>
</svg>
