<svg id="Warstwa_1" data-name="Warstwa 1" xmlns="http://www.w3.org/2000/svg" xmlns:xlink="http://www.w3.org/1999/xlink" viewBox="0 0 48 48">
  <defs>
    <style>
      .cls-1 {
        fill: none;
      }

      .cls-2 {
        clip-path: url(#clip-path);
      }

      .cls-3 {
        fill: #1d1d1b;
      }
    </style>
    <clipPath id="clip-path">
      <rect class="cls-1" x="4.4625" y="7.1175" width="39.075" height="33.765"/>
    </clipPath>
  </defs>
  <g>
    <g class="cls-2">
      <path class="cls-3" d="M38.9662,30.3593H9.36a.77.77,0,0,1,0-1.539h29.606a.77.77,0,1,1,0,1.539"/>
      <path class="cls-3" d="M38.9662,26.53H9.36a.77.77,0,1,1,0-1.539h29.606a.77.77,0,1,1,0,1.539"/>
      <path class="cls-3" d="M35.16,39.3275a.0736.0736,0,0,0,.047.016.0815.0815,0,0,0,.081-.082v-6.144h4.41a2.3029,2.3029,0,0,0,2.3-2.3v-19.86a2.3023,2.3023,0,0,0-2.3-2.3H8.3022a2.3023,2.3023,0,0,0-2.3,2.3v19.86a2.3029,2.3029,0,0,0,2.3,2.3h19.456Zm.047,1.555a1.6238,1.6238,0,0,1-1.013-.356l-.013-.011-6.984-5.859H8.3022a3.844,3.844,0,0,1-3.84-3.839v-19.86a3.8448,3.8448,0,0,1,3.84-3.84h31.396a3.844,3.844,0,0,1,3.839,3.84v19.86a3.8431,3.8431,0,0,1-3.839,3.839h-2.87v4.605a1.6226,1.6226,0,0,1-1.621,1.621"/>
    </g>
    <polygon class="cls-3" points="16.961 19.825 16.961 21.604 9.546 21.604 9.546 12.027 16.783 12.027 16.783 13.805 11.748 13.805 11.748 15.885 16.195 15.885 16.195 17.609 11.748 17.609 11.748 19.825 16.961 19.825"/>
    <polygon class="cls-3" points="27.509 12.027 27.509 21.604 25.689 21.604 20.915 15.789 20.915 21.604 18.725 21.604 18.725 12.027 20.559 12.027 25.32 17.842 25.32 12.027 27.509 12.027"/>
    <g class="cls-2">
      <path class="cls-3" d="M36.2516,16.6649h2.025v3.886a5.773,5.773,0,0,1-1.806.902,7.006,7.006,0,0,1-2.066.315,5.6033,5.6033,0,0,1-2.682-.636,4.73,4.73,0,0,1-1.867-1.765,5.1466,5.1466,0,0,1,0-5.103,4.7027,4.7027,0,0,1,1.881-1.765,5.7117,5.7117,0,0,1,2.709-.636,5.9247,5.9247,0,0,1,2.285.424,4.53,4.53,0,0,1,1.724,1.231l-1.423,1.314a3.29,3.29,0,0,0-2.476-1.081,3.3874,3.3874,0,0,0-1.629.383,2.7516,2.7516,0,0,0-1.108,1.081,3.4061,3.4061,0,0,0,0,3.188,2.8092,2.8092,0,0,0,1.102,1.087,3.26,3.26,0,0,0,1.607.39,3.5989,3.5989,0,0,0,1.724-.41Z"/>
    </g>
  </g>
</svg>
