<svg id="Warstwa_1" data-name="Warstwa 1" xmlns="http://www.w3.org/2000/svg" xmlns:xlink="http://www.w3.org/1999/xlink" viewBox="0 0 48 48">
  <defs>
    <style>
      .cls-1 {
        fill: none;
      }

      .cls-2 {
        clip-path: url(#clip-path);
      }

      .cls-3 {
        fill: #1d1d1b;
      }
    </style>
    <clipPath id="clip-path">
      <rect class="cls-1" x="4.4625" y="7.1175" width="39.075" height="33.765"/>
    </clipPath>
  </defs>
  <g>
    <g class="cls-2">
      <path class="cls-3" d="M38.9662,30.3594H9.36a.77.77,0,1,1,0-1.539h29.606a.77.77,0,1,1,0,1.539"/>
      <path class="cls-3" d="M38.9662,26.53H9.36a.77.77,0,1,1,0-1.539h29.606a.77.77,0,1,1,0,1.539"/>
      <path class="cls-3" d="M35.16,39.3275a.0736.0736,0,0,0,.047.016.0815.0815,0,0,0,.081-.082v-6.144h4.41a2.3029,2.3029,0,0,0,2.3-2.3v-19.86a2.3023,2.3023,0,0,0-2.3-2.3H8.3022a2.3023,2.3023,0,0,0-2.3,2.3v19.86a2.3029,2.3029,0,0,0,2.3,2.3h19.456Zm.047,1.555a1.6238,1.6238,0,0,1-1.013-.356l-.013-.011-6.984-5.859H8.3022a3.844,3.844,0,0,1-3.84-3.839v-19.86a3.8448,3.8448,0,0,1,3.84-3.84h31.396a3.844,3.844,0,0,1,3.839,3.84v19.86a3.8431,3.8431,0,0,1-3.839,3.839h-2.87v4.605a1.6226,1.6226,0,0,1-1.621,1.621"/>
      <path class="cls-3" d="M21.0927,16.89a1.5015,1.5015,0,0,0,.52-1.224,1.5182,1.5182,0,0,0-.52-1.238,2.3252,2.3252,0,0,0-1.519-.431h-1.806v3.324h1.806a2.3252,2.3252,0,0,0,1.519-.431m.814-4.275a3.2787,3.2787,0,0,1,1.443,1.204,3.3142,3.3142,0,0,1,.507,1.847,3.3208,3.3208,0,0,1-.507,1.84,3.2147,3.2147,0,0,1-1.443,1.204,5.4,5.4,0,0,1-2.21.417h-1.929v2.641h-2.216v-9.577h4.145a5.3167,5.3167,0,0,1,2.21.424"/>
    </g>
    <polygon class="cls-3" points="25.43 12.191 27.646 12.191 27.646 19.962 32.449 19.962 32.449 21.768 25.43 21.768 25.43 12.191"/>
  </g>
</svg>
