<svg id="Warstwa_1" data-name="Warstwa 1" xmlns="http://www.w3.org/2000/svg" xmlns:xlink="http://www.w3.org/1999/xlink" viewBox="0 0 48 48">
  <defs>
    <style>
      .cls-1 {
        fill: none;
      }

      .cls-2 {
        clip-path: url(#clip-path);
      }

      .cls-3 {
        fill: #1d1d1b;
      }
    </style>
    <clipPath id="clip-path">
      <rect class="cls-1" x="4.46" width="39.08" height="48"/>
    </clipPath>
  </defs>
  <g class="cls-2">
    <path class="cls-3" d="M22.925,9.7734a1.265,1.265,0,1,0,1.265,1.265,1.2645,1.2645,0,0,0-1.265-1.265"/>
    <path class="cls-3" d="M29.1787,16.6916a1.1328,1.1328,0,0,1-.94.442c-.183.01-.873.006-1.243.004h-.007a1.25,1.25,0,0,0-1.248,1.249l.001.772v1.487c-.492.002-1.174.003-1.86-.004a1.8153,1.8153,0,0,1-1.853-1.181.734.734,0,0,0-1.387.481,3.2259,3.2259,0,0,0,3.224,2.168c.438.005.875.006,1.262.006.223,0,.429,0,.61-.001-.031,1.504-.678,2.124-2.216,2.127-1.811.004-6.153.013-7.353,0a1.8128,1.8128,0,0,1-1.852-1.181.7347.7347,0,0,0-1.388.482,3.2288,3.2288,0,0,0,3.225,2.168c.733.007,2.622.008,4.4.005v3.768H8.2357c-.009-1.799-.027-6.755.003-8.885a4.7194,4.7194,0,0,0-.741-2.715c-2.701-4.325-1.774-11.212,1.905-14.173a10.37,10.37,0,0,1,9.335-1.844,11.05,11.05,0,0,1,7.447,6.69c.294.779,1.094,2.64,1.8,4.281.535,1.244,1.039,2.418,1.215,2.868a1.0749,1.0749,0,0,1-.021.986m1.389-1.521c-.185-.473-.671-1.603-1.234-2.913-.699-1.628-1.493-3.472-1.776-4.22A12.52,12.52,0,0,0,19.1237.45a11.823,11.823,0,0,0-10.641,2.117c-4.278,3.442-5.342,11.113-2.231,16.095a3.2909,3.2909,0,0,1,.519,1.916c-.032,2.237-.01,7.556-.003,9.133a1.2511,1.2511,0,0,0,1.249,1.242h12.757a1.2507,1.2507,0,0,0,1.249-1.249v-3.99c.583-.001,1.104-.002,1.503-.003,2.407-.006,3.681-1.285,3.684-3.699.001-.939.001-1.877,0-2.854v-.551c.491.003.921.003,1.101-.006a2.585,2.585,0,0,0,2.101-1.111,2.4965,2.4965,0,0,0,.156-2.319"/>
    <path class="cls-3" d="M42.0477,27.0986a.4377.4377,0,0,1-.3.291c-.372.154-7.083,2.953-7.083,2.953l.001.002a.7331.7331,0,0,0,.281,1.41.7228.7228,0,0,0,.172-.021l2.92-.7,3.437-.823c.042-.011.155-.038.329.115a.3774.3774,0,0,1,.087.495.6765.6765,0,0,1-.376.242l-6.324,1.691a.2773.2773,0,0,0-.026.01.64.64,0,0,0-.073.027c-.021.009-.042.018-.062.029a.6489.6489,0,0,0-.062.039c-.02.014-.039.027-.057.042s-.034.031-.051.048-.033.034-.047.052-.028.038-.041.057-.026.039-.037.06-.02.042-.029.064-.018.043-.025.066-.012.045-.017.068-.009.048-.012.072-.002.046-.002.07a.6694.6694,0,0,0,.003.077.262.262,0,0,0,.001.028c.002.017.008.033.011.05.003.013.003.026.007.04l.008.021a.2864.2864,0,0,0,.007.028c.004.011.01.022.014.033a.53.53,0,0,0,.027.059.3358.3358,0,0,0,.016.033l.018.029.033.047.027.035c.007.007.013.015.02.023.012.012.025.023.037.035s.025.024.039.035l.003.003c.011.009.022.017.033.025l.023.014c.014.01.028.019.043.028.009.005.017.01.026.014.014.008.029.013.044.02s.028.013.043.018c.012.004.023.008.035.011.017.005.033.009.05.013.012.003.023.007.035.009.017.003.033.003.05.005s.033.003.049.004l.029.002a.6554.6554,0,0,0,.098-.007h.002l5.36-.738a.4711.4711,0,0,1,.327.082.2963.2963,0,0,1,.069.389.4558.4558,0,0,1-.253.184c-.057.01-.382.059-.87.134-3.476.532-5.484.852-6.468,1.036-.659-.117-1.337-.237-1.97-.349a2.6707,2.6707,0,0,0,.441-.201,1.7138,1.7138,0,0,0,.768-1.97,1.7924,1.7924,0,0,0-2.199-1.233c-.118.028-.773.226-2.476.745-.3.091-.624.189-.95.288l-.38-.659a.8351.8351,0,0,1,.126-1.012c.32-.368.638-.766.972-1.219.14-.189.893-1.343,2.026-3.082.602-.925,1.285-1.973,1.361-2.08a.342.342,0,0,1,.508-.109.2721.2721,0,0,1,.094.252,1.2614,1.2614,0,0,1-.121.244c-.148.227-1.479,2.345-1.536,2.435a.7322.7322,0,0,0,.987,1.024l.002.003s7.263-4.189,7.564-4.364a.4236.4236,0,0,1,.386-.027.3783.3783,0,0,1,.251.436.5367.5367,0,0,1-.23.329c-.21.127-3.889,2.255-5.804,3.362l-.013.009a.7685.7685,0,0,0-.065.047c-.018.014-.036.026-.052.041a.6524.6524,0,0,0-.05.055c-.016.017-.032.034-.046.052s-.024.04-.036.06a.6206.6206,0,0,0-.035.062c-.01.021-.017.044-.025.066s-.016.043-.022.066-.008.047-.012.071-.008.045-.009.068.001.047.002.07a.6132.6132,0,0,0,.005.074c.003.021.009.043.014.065.007.026.012.051.021.077l.004.015c.008.019.019.035.027.053s.014.035.024.052l.01.016a.2977.2977,0,0,0,.02.029.8706.8706,0,0,0,.063.081l.019.021a.9148.9148,0,0,0,.095.082.1373.1373,0,0,1,.02.013.74.74,0,0,0,.095.053.1505.1505,0,0,0,.022.011.8194.8194,0,0,0,.118.04l.025.004a.6033.6033,0,0,0,.105.014l.028.002.016.001a.6589.6589,0,0,0,.109-.009l.025-.005a.69.69,0,0,0,.114-.031l.014-.003c.071-.027,7.111-2.718,7.403-2.829a.4989.4989,0,0,1,.377.044.3756.3756,0,0,1,.171.472M37.1,37.3776a.4225.4225,0,0,1,.313.228.4051.4051,0,0,1,.052.258.4217.4217,0,0,1-.139.237.54.54,0,0,1-.389.104c-.194-.03-2.918-.508-5.115-.893-.545-.096-1.058-.186-1.492-.262l-.015-.001a.5253.5253,0,0,0-.079-.006c-.023-.001-.046-.004-.069-.003s-.044.006-.065.009a.4884.4884,0,0,0-.078.013.5426.5426,0,0,0-.053.017.7706.7706,0,0,0-.08.03c-.017.008-.032.018-.048.027-.025.014-.049.028-.072.044-.016.012-.03.026-.045.039a.6313.6313,0,0,0-.06.055c-.014.015-.026.032-.039.048-.016.022-.033.042-.048.065-.011.018-.019.038-.028.056a.5229.5229,0,0,0-.035.076l-.007.014c-.006.018-.008.037-.013.056a.5325.5325,0,0,0-.016.057l-.001.015a.7356.7356,0,0,0-.006.081v.004c-.001.021-.003.041-.002.062a.632.632,0,0,0,.009.073c.004.023.006.046.012.069s.014.043.021.065a.56.56,0,0,0,.026.068.5114.5114,0,0,0,.034.06c.012.02.023.041.037.06s.03.036.045.054.031.036.048.052a.5657.5657,0,0,0,.054.043.6606.6606,0,0,0,.06.044c.019.012.039.02.058.03a.6214.6214,0,0,0,.074.034l.014.007c.072.025,7.195,2.489,7.49,2.592a.4932.4932,0,0,1,.26.275.4067.4067,0,0,1,.006.264.412.412,0,0,1-.178.208.4365.4365,0,0,1-.417.03c-.384-.121-7.323-2.29-7.323-2.29l-.001.002a.7326.7326,0,0,0-.546,1.355l2.6,1.298,3.248,1.621c.039.019.143.071.179.301a.4087.4087,0,0,1-.041.261.4156.4156,0,0,1-.211.174.6882.6882,0,0,1-.444-.057l-5.931-2.77a.7323.7323,0,0,0-.699,1.284l-.002.003,4.58,2.88a.4672.4672,0,0,1,.198.273.2926.2926,0,0,1-.198.342.448.448,0,0,1-.311-.022c-.05-.029-.331-.2-.753-.457-4.121-2.505-5.873-3.541-6.25-3.694-.656-.266-1.317-.554-1.957-.832l-.013-.007q-.3525-.153-.705-.305a.8005.8005,0,0,1-.504-.941l.797-4.522a.8373.8373,0,0,1,.748-.694c.482-.076.982-.177,1.528-.309.135-.032.652-.186,1.459-.429.41-.124.894-.271,1.443-.438.2-.061.407-.124.623-.189,1.06-.323,2.26-.688,2.387-.721a.3406.3406,0,0,1,.459.243.2716.2716,0,0,1-.09.254,1.3219,1.3219,0,0,1-.248.109c-.26.079-2.641.845-2.742.877a.4893.4893,0,0,0-.046.02.73.73,0,0,0,.143,1.399v.003s.286.051.755.134c.315.055.713.126,1.161.205.952.168,2.132.377,3.235.572,1.749.309,3.303.584,3.448.609m6.339-9.807a1.8433,1.8433,0,0,0-.801-2.2,1.9637,1.9637,0,0,0-1.659-.161c-.031.012-.133.05-.29.11a1.882,1.882,0,0,0-2.561-2.601c-.181.105-2.877,1.66-4.998,2.884a2.8128,2.8128,0,0,0,.214-.441,1.7148,1.7148,0,0,0-.679-2.003,1.7932,1.7932,0,0,0-2.477.469c-.072.097-.445.669-1.414,2.156-.781,1.199-1.851,2.842-1.976,3.011-.311.42-.604.789-.898,1.126a2.3164,2.3164,0,0,0-.291,2.711l.209.362c-.549.165-.96.287-1.049.309-.508.122-.969.215-1.412.285a2.318,2.318,0,0,0-1.966,1.89l-.797,4.523a2.265,2.265,0,0,0,1.368,2.543c.233.101.467.202.7.304l.015.006c.647.282,1.317.573,1.987.846.469.201,4.664,2.751,6.042,3.589.504.307.729.444.783.475a1.8714,1.8714,0,0,0,.922.236,1.7678,1.7678,0,0,0,1.772-2.053l-.007-.031a2.2849,2.2849,0,0,0,.738.128,1.7636,1.7636,0,0,0,.647-.118,1.8434,1.8434,0,0,0,1.171-2.027,2,2,0,0,0-.26-.728c.108.033.181.056.212.066a2.1486,2.1486,0,0,0,.644.104,1.8491,1.8491,0,0,0,.975-.279,1.8442,1.8442,0,0,0,.801-2.2,1.9655,1.9655,0,0,0-1.168-1.19c-.031-.011-.133-.046-.291-.101a1.8819,1.8819,0,0,0,.649-.366,1.8859,1.8859,0,0,0-.468-3.125c1.017-.159,1.959-.303,2.511-.388.583-.089.843-.129.904-.139a1.8992,1.8992,0,0,0,1.284-.923,1.7593,1.7593,0,0,0-.388-2.2c-.008-.008-.017-.013-.025-.02a2.039,2.039,0,0,0,1.068-.882,1.8474,1.8474,0,0,0-.406-2.306,1.9959,1.9959,0,0,0-.668-.391c.104-.043.175-.073.205-.085a1.9005,1.9005,0,0,0,1.128-1.175"/>
  </g>
</svg>
