<svg id="Warstwa_1" data-name="Warstwa 1" xmlns="http://www.w3.org/2000/svg" xmlns:xlink="http://www.w3.org/1999/xlink" viewBox="0 0 48 48">
  <defs>
    <style>
      .cls-1 {
        fill: none;
      }

      .cls-2 {
        clip-path: url(#clip-path);
      }

      .cls-3 {
        fill: #1d1d1b;
      }
    </style>
    <clipPath id="clip-path">
      <rect class="cls-1" y="2.077" width="48" height="43.846"/>
    </clipPath>
  </defs>
  <g class="cls-2">
    <path class="cls-3" d="M20.9558,37.9491H6.4858a.751.751,0,0,1,0-1.502h14.47a.751.751,0,0,1,0,1.502"/>
    <path class="cls-3" d="M20.9558,33.773H6.4858a.751.751,0,0,1,0-1.502h14.47a.751.751,0,0,1,0,1.502"/>
    <path class="cls-3" d="M20.9558,29.597H6.4858a.751.751,0,1,1,0-1.502h14.47a.751.751,0,0,1,0,1.502"/>
    <path class="cls-3" d="M41.7757,37.9491h-14.47a.751.751,0,0,1,0-1.502h14.47a.751.751,0,0,1,0,1.502"/>
    <path class="cls-3" d="M28.443,25.421a.3862.3862,0,0,0-.386.386v6.077a.3871.3871,0,0,0,.386.387H40.638a.3879.3879,0,0,0,.387-.387V25.807a.3871.3871,0,0,0-.387-.386Zm12.195,8.352H28.443a1.89,1.89,0,0,1-1.888-1.889V25.807a1.89,1.89,0,0,1,1.888-1.888H40.638a1.8911,1.8911,0,0,1,1.889,1.888v6.077a1.8913,1.8913,0,0,1-1.889,1.889"/>
    <path class="cls-3" d="M46.4982,41.6952a1.7086,1.7086,0,0,1-1.707,1.707H26.1472l-.22.22a2.7232,2.7232,0,0,1-3.854,0l-.22-.22H3.2092a1.7086,1.7086,0,0,1-1.707-1.707V15.9462a1.7079,1.7079,0,0,1,.93-1.518c-.001.044-.003.088-.003.132v24.065a3.7514,3.7514,0,0,0,3.747,3.747h14.828A3.7429,3.7429,0,0,0,24,40.8732a3.7415,3.7415,0,0,0,2.996,1.499h14.828a3.7514,3.7514,0,0,0,3.747-3.747V14.56c0-.044-.002-.088-.004-.132a1.7081,1.7081,0,0,1,.931,1.518ZM3.9312,14.56a2.2474,2.2474,0,0,1,2.245-2.245h8.37a9.4975,9.4975,0,0,0,8.703,8.703v17.607a2.2474,2.2474,0,0,1-2.245,2.245H6.1762a2.2474,2.2474,0,0,1-2.245-2.245ZM24,3.5792a7.9845,7.9845,0,1,1-7.985,7.985A7.9931,7.9931,0,0,1,24,3.5792M44.0682,14.56v24.065a2.2472,2.2472,0,0,1-2.244,2.245H26.9962a2.2474,2.2474,0,0,1-2.245-2.245V21.0182a9.4975,9.4975,0,0,0,8.703-8.703h8.37a2.2472,2.2472,0,0,1,2.244,2.245m1.037-1.807a3.7487,3.7487,0,0,0-3.281-1.94h-8.37a9.4835,9.4835,0,0,0-18.908,0h-8.37a3.7487,3.7487,0,0,0-3.281,1.94A3.2134,3.2134,0,0,0,0,15.9462v25.749a3.2134,3.2134,0,0,0,3.209,3.21h18.039a4.2288,4.2288,0,0,0,5.504,0h18.039A3.2134,3.2134,0,0,0,48,41.6952V15.9462a3.2142,3.2142,0,0,0-2.895-3.193"/>
    <path class="cls-3" d="M29.4744,12.3065l.742-.742-.743-.744-4.015-4.015a1.0518,1.0518,0,0,0-1.488,1.487l2.22,2.22H19.27a1.0515,1.0515,0,0,0,0,2.103h6.92l-2.219,2.22a1.0515,1.0515,0,1,0,1.487,1.487l4.013-4.013.003-.003"/>
  </g>
</svg>
