<svg id="Warstwa_1" data-name="Warstwa 1" xmlns="http://www.w3.org/2000/svg" xmlns:xlink="http://www.w3.org/1999/xlink" viewBox="0 0 48 48">
  <defs>
    <style>
      .cls-1 {
        fill: none;
      }

      .cls-2 {
        clip-path: url(#clip-path);
      }

      .cls-3 {
        fill: #1d1d1b;
      }
    </style>
    <clipPath id="clip-path">
      <rect class="cls-1" x="5.9175" y="4.107" width="36.165" height="39.786"/>
    </clipPath>
  </defs>
  <g>
    <g class="cls-2">
      <path class="cls-3" d="M21.224,37.9936a5.9337,5.9337,0,0,1-1.1-.102,6.3047,6.3047,0,0,1-5.212-5.41.7419.7419,0,1,1,1.471-.194,4.8438,4.8438,0,0,0,4.014,4.145,4.6957,4.6957,0,0,0,5.015-2.454c.799-1.622,2.533-5.459,3.799-8.26.695-1.538,1.244-2.753,1.458-3.204a7.7415,7.7415,0,0,0,.764-4.455,7.5781,7.5781,0,0,0-14.702-1.385,5.7146,5.7146,0,0,0-.355,2.293.7425.7425,0,1,1-1.48.122,7.1181,7.1181,0,0,1,.424-2.878,9.0633,9.0633,0,0,1,17.585,1.653,9.3162,9.3162,0,0,1-.895,5.288c-.208.438-.754,1.646-1.446,3.177-1.27,2.811-3.01,6.661-3.821,8.305a6.1953,6.1953,0,0,1-5.519,3.359"/>
      <path class="cls-3" d="M25.1836,28.6424a.7428.7428,0,0,1-.665-1.071c.464-.941,1.474-3.176,2.211-4.808.407-.9.728-1.611.855-1.877a4.2217,4.2217,0,0,0,.418-2.426,4.1132,4.1132,0,0,0-7.979-.753,3.0424,3.0424,0,0,0-.192,1.217.7425.7425,0,0,1-1.48.121,4.618,4.618,0,0,1,.261-1.801,5.5982,5.5982,0,0,1,10.862,1.021,5.73,5.73,0,0,1-.55,3.259c-.12.252-.454.993-.842,1.851-.742,1.641-1.758,3.889-2.232,4.853a.7439.7439,0,0,1-.667.414"/>
    </g>
    <polygon class="cls-3" points="34.747 28.833 34.747 30.421 37.441 30.421 37.441 37.251 39.388 37.251 39.388 30.421 42.082 30.421 42.082 28.833 34.747 28.833"/>
    <g class="cls-2">
      <path class="cls-3" d="M41.2005,4.6734a2.2261,2.2261,0,0,0-3.144.177l-6.358,7.115a10.5881,10.5881,0,0,1,2.326,4.08l7.353-8.228a2.227,2.227,0,0,0-.177-3.144"/>
      <path class="cls-3" d="M13.422,32.4179l-6.938,7.764A2.227,2.227,0,1,0,9.805,43.15l5.581-6.246a7.7308,7.7308,0,0,1-1.946-4.228,2.0339,2.0339,0,0,1-.018-.258"/>
    </g>
  </g>
</svg>
