<svg id="Warstwa_1" data-name="Warstwa 1" xmlns="http://www.w3.org/2000/svg" xmlns:xlink="http://www.w3.org/1999/xlink" viewBox="0 0 48 48">
  <defs>
    <style>
      .cls-1 {
        fill: none;
      }

      .cls-2 {
        clip-path: url(#clip-path);
      }

      .cls-3 {
        fill: #1d1d1b;
      }
    </style>
    <clipPath id="clip-path">
      <rect class="cls-1" y="4.107" width="48" height="39.786"/>
    </clipPath>
  </defs>
  <g>
    <g class="cls-2">
      <path class="cls-3" d="M3.3572,31.2479a.74.74,0,0,1-.533-.225,10.1435,10.1435,0,0,1,0-14.045.7425.7425,0,1,1,1.066,1.034,8.6582,8.6582,0,0,0,0,11.977.7425.7425,0,0,1-.533,1.259"/>
      <path class="cls-3" d="M5.4614,29.0794a.74.74,0,0,1-.533-.225,7.0086,7.0086,0,0,1,0-9.708.7425.7425,0,1,1,1.066,1.034,5.5233,5.5233,0,0,0,0,7.64.7425.7425,0,0,1-.533,1.259"/>
      <path class="cls-3" d="M7.5656,26.911a.74.74,0,0,1-.533-.225,3.8763,3.8763,0,0,1,0-5.371.7425.7425,0,1,1,1.066,1.034,2.391,2.391,0,0,0,0,3.303.7425.7425,0,0,1-.533,1.259"/>
      <path class="cls-3" d="M28.9869,17.8646a9.0633,9.0633,0,0,0-17.585-1.653,7.1181,7.1181,0,0,0-.424,2.878.7425.7425,0,1,0,1.48-.122,5.7294,5.7294,0,0,1,.354-2.293,7.5787,7.5787,0,0,1,14.703,1.385,7.7415,7.7415,0,0,1-.764,4.455c-.214.451-.764,1.667-1.459,3.206-1.266,2.801-2.999,6.636-3.798,8.258a4.6957,4.6957,0,0,1-5.015,2.454,4.8438,4.8438,0,0,1-4.014-4.145.7424.7424,0,1,0-1.472.194,6.309,6.309,0,0,0,5.213,5.411,6.0191,6.0191,0,0,0,1.1.101,6.1965,6.1965,0,0,0,5.519-3.359c.811-1.644,2.55-5.492,3.82-8.303.692-1.532,1.239-2.741,1.447-3.179a9.3162,9.3162,0,0,0,.895-5.288"/>
      <path class="cls-3" d="M18.2379,29.1083a2.5735,2.5735,0,1,1,2.573-2.573,2.5765,2.5765,0,0,1-2.573,2.573m4.575-6.348c-.281.621-.601,1.33-.916,2.022a4.0584,4.0584,0,1,0,.002,3.501c.011-.018.023-.036.033-.055.475-.965,1.492-3.214,2.234-4.857.387-.855.721-1.595.841-1.847a5.7372,5.7372,0,0,0,.549-3.259,5.5974,5.5974,0,0,0-10.861-1.02,4.5944,4.5944,0,0,0-.262,1.801.7425.7425,0,0,0,1.48-.122,3.0456,3.0456,0,0,1,.193-1.217,4.1133,4.1133,0,0,1,7.979.753,4.2144,4.2144,0,0,1-.419,2.426c-.126.266-.447.976-.853,1.874"/>
    </g>
    <polygon class="cls-3" points="32.777 30.397 32.777 32.622 36.673 32.622 36.673 34.185 32.777 34.185 32.777 37.251 30.829 37.251 30.829 28.834 37.19 28.834 37.19 30.397 32.777 30.397"/>
    <polygon class="cls-3" points="46.377 28.833 43.275 34.064 40.124 28.833 38.513 28.833 38.513 37.251 40.341 37.251 40.341 32.309 42.806 36.361 43.683 36.361 46.16 32.2 46.172 37.251 48 37.251 47.976 28.833 46.377 28.833"/>
    <g class="cls-2">
      <path class="cls-3" d="M37.2824,4.6733a2.2274,2.2274,0,0,0-3.145.177l-6.358,7.115a10.5742,10.5742,0,0,1,2.327,4.081l7.353-8.228a2.2282,2.2282,0,0,0-.177-3.145"/>
      <path class="cls-3" d="M9.5037,32.4178l-6.938,7.764a2.227,2.227,0,1,0,3.321,2.968l5.581-6.246a7.7308,7.7308,0,0,1-1.946-4.228,2.0339,2.0339,0,0,1-.018-.258"/>
    </g>
  </g>
</svg>
