<svg id="Warstwa_1" data-name="Warstwa 1" xmlns="http://www.w3.org/2000/svg" xmlns:xlink="http://www.w3.org/1999/xlink" viewBox="0 0 48 48">
  <defs>
    <style>
      .cls-1 {
        fill: none;
      }

      .cls-2 {
        clip-path: url(#clip-path);
      }

      .cls-3 {
        fill: #1d1d1b;
      }
    </style>
    <clipPath id="clip-path">
      <rect class="cls-1" x="5.3375" width="37.325" height="48"/>
    </clipPath>
  </defs>
  <g class="cls-2">
    <path class="cls-3" d="M41.1446,20.6879a5.2268,5.2268,0,0,1-.969,2.738,4.8626,4.8626,0,0,1-2.201,1.652,6.8476,6.8476,0,0,1-2.505.442c-.263,0-.537-.012-.814-.036l-1.345-.118.931-10.645,1.345.117a7.3053,7.3053,0,0,1,3.198.976,4.865,4.865,0,0,1,1.881,2.008,5.2384,5.2384,0,0,1,.479,2.866m-28.732-5.85,1.346-.117.931,10.645-1.345.118c-.277.024-.552.036-.815.036a6.8422,6.8422,0,0,1-2.504-.442,4.8571,4.8571,0,0,1-2.201-1.651,5.2335,5.2335,0,0,1-.969-2.739,5.2241,5.2241,0,0,1,.479-2.865,4.8589,4.8589,0,0,1,1.88-2.009,7.3137,7.3137,0,0,1,3.198-.976M42,17.1559a6.3749,6.3749,0,0,0-2.437-2.615,7.94,7.94,0,0,0-2.099-.884,15.3953,15.3953,0,0,0-.997-5.384,12.9545,12.9545,0,0,0-2.818-4.418,12.723,12.723,0,0,0-4.284-2.848A14.154,14.154,0,0,0,23.9906,0a14.1041,14.1041,0,0,0-5.355,1.007,12.62,12.62,0,0,0-4.277,2.85,13.13,13.13,0,0,0-2.816,4.414,15.2994,15.2994,0,0,0-1.007,5.386,7.9478,7.9478,0,0,0-2.098.884,6.3617,6.3617,0,0,0-2.437,2.615,6.7244,6.7244,0,0,0-.631,3.662,6.7223,6.7223,0,0,0,1.257,3.497,6.3659,6.3659,0,0,0,2.854,2.151,8.2669,8.2669,0,0,0,3.049.546q.462,0,.945-.042l1.503-.132a1.3336,1.3336,0,0,0,1.212-1.444l-.959-10.962a1.3333,1.3333,0,0,0-1.326-1.216,1.1642,1.1642,0,0,0-.118.005l-1.504.131c-.084.008-.166.019-.25.028a13.6756,13.6756,0,0,1,.898-4.562,11.6458,11.6458,0,0,1,2.493-3.917,11.1455,11.1455,0,0,1,3.775-2.513,12.62,12.62,0,0,1,4.792-.896,12.661,12.661,0,0,1,4.81.896,11.2334,11.2334,0,0,1,3.786,2.514,11.4761,11.4761,0,0,1,2.491,3.914,13.7513,13.7513,0,0,1,.889,4.564c-.083-.009-.165-.02-.25-.028l-1.503-.131a1.1766,1.1766,0,0,0-.118-.005,1.3326,1.3326,0,0,0-1.326,1.216l-.959,10.962a1.3328,1.3328,0,0,0,1.211,1.444l1.504.132c.322.028.636.042.944.042a8.2723,8.2723,0,0,0,3.05-.546,6.3659,6.3659,0,0,0,2.854-2.151,6.73,6.73,0,0,0,1.256-3.497,6.7242,6.7242,0,0,0-.63-3.662"/>
    <path class="cls-3" d="M30.1927,26.14a.7465.7465,0,0,0,.742-.681l.959-10.962a.7458.7458,0,1,0-1.486-.13l-.959,10.962a.7463.7463,0,0,0,.678.808q.033.003.066.003"/>
    <path class="cls-3" d="M17.8071,26.14q.033,0,.066-.003a.7463.7463,0,0,0,.678-.808l-.959-10.962a.7458.7458,0,1,0-1.486.13l.959,10.962a.7458.7458,0,0,0,.742.681"/>
    <path class="cls-3" d="M37.9765,34.2525a1.1926,1.1926,0,0,0-1.687,0l-2.711,2.711-2.711-2.711A1.1932,1.1932,0,0,0,29.18,35.94l2.711,2.711-2.711,2.711a1.1936,1.1936,0,0,0,1.688,1.688l2.711-2.711L36.29,43.05a1.1932,1.1932,0,0,0,1.687-1.688l-2.711-2.711,2.711-2.711a1.1926,1.1926,0,0,0,0-1.687"/>
    <path class="cls-3" d="M24.7027,40.491v-3.68a1.9846,1.9846,0,0,1,0,3.68m-1.492,5.51a.5036.5036,0,0,1-.806.404L17.51,42.294l-.021-.017a1.9622,1.9622,0,0,0-.483-.276V35.3a1.9622,1.9622,0,0,0,.483-.276l4.916-4.128a.5036.5036,0,0,1,.806.404Zm-11.598-4.652V35.952a.5055.5055,0,0,1,.505-.505h3.397v6.407h-3.397a.5049.5049,0,0,1-.505-.505m13.09-6.095V31.3a1.9962,1.9962,0,0,0-3.225-1.573l-4.915,4.128a.5084.5084,0,0,1-.303.101h-4.142a1.9977,1.9977,0,0,0-1.996,1.996v5.397a1.9986,1.9986,0,0,0,1.996,1.997H16.26a.5074.5074,0,0,1,.303.1l4.894,4.112.021.016a1.9955,1.9955,0,0,0,3.225-1.573V42.048a3.4777,3.4777,0,0,0,0-6.794"/>
  </g>
</svg>
