<svg id="Warstwa_1" data-name="Warstwa 1" xmlns="http://www.w3.org/2000/svg" xmlns:xlink="http://www.w3.org/1999/xlink" viewBox="0 0 48 48">
  <defs>
    <style>
      .cls-1 {
        fill: none;
      }

      .cls-2 {
        clip-path: url(#clip-path);
      }

      .cls-3 {
        fill: #1d1d1b;
      }
    </style>
    <clipPath id="clip-path">
      <rect class="cls-1" x="0.768" y="0.768" width="46.464" height="46.464"/>
    </clipPath>
  </defs>
  <g>
    <g class="cls-2">
      <path class="cls-3" d="M45.6921,43.3928a2.3029,2.3029,0,0,1-2.3,2.3H15.1161a.1164.1164,0,0,1-.107-.055.0891.0891,0,0,1,.012-.073l6.211-7.403V23.5328a2.3031,2.3031,0,0,1,2.3-2.301h19.86a2.3031,2.3031,0,0,1,2.3,2.301ZM4.6081,26.7678a2.3031,2.3031,0,0,1-2.301-2.3V4.6078a2.3031,2.3031,0,0,1,2.301-2.3h28.304a.0807.0807,0,0,1,.081.081.0771.0771,0,0,1-.015.047l-6.21,7.403v9.854h-3.236a3.844,3.844,0,0,0-3.839,3.84v3.235Zm38.784-7.075H28.3071v-9.294l5.859-6.984.011-.013a1.62,1.62,0,0,0-1.265-2.633L4.6081.7678a3.8442,3.8442,0,0,0-3.84,3.84v19.86a3.8442,3.8442,0,0,0,3.84,3.84h15.085v9.294l-5.859,6.983-.011.013a1.6249,1.6249,0,0,0-.319,1.364,1.6431,1.6431,0,0,0,1.612,1.27h28.276a3.844,3.844,0,0,0,3.84-3.839v-19.86a3.8448,3.8448,0,0,0-3.84-3.84"/>
    </g>
    <path class="cls-3" d="M35.51,34.9024l-2.076-5.012-2.076,5.012Zm.954,2.3h-6.078l-1.159,2.805h-3.105l5.835-13.091h2.992l5.854,13.091h-3.18Z"/>
    <g class="cls-2">
      <path class="cls-3" d="M20.4588,11.6184c-.211,4.574-.662,7.298-1.249,8.231a2.5483,2.5483,0,0,1-2.272,1.203,13.1956,13.1956,0,0,1-2.618-.3,13.4336,13.4336,0,0,0-.136-1.896,14.3947,14.3947,0,0,0,2.378.346A.9789.9789,0,0,0,17.57,18.6a20.0966,20.0966,0,0,0,.828-5.793h-3.702a14.1371,14.1371,0,0,1-4.71,8.276,10.6393,10.6393,0,0,0-1.55-1.159,11.728,11.728,0,0,0,4.244-7.117H9.0228v-1.776h4.018c.15-1.038.18-1.881.24-3.039l2.017.541c-.09.948-.121,1.625-.256,2.513h3.852a10.6148,10.6148,0,0,1,1.565.572"/>
    </g>
  </g>
</svg>
