<svg id="Warstwa_1" data-name="Warstwa 1" xmlns="http://www.w3.org/2000/svg" xmlns:xlink="http://www.w3.org/1999/xlink" viewBox="0 0 48 48">
  <defs>
    <style>
      .cls-1 {
        fill: none;
      }

      .cls-2 {
        clip-path: url(#clip-path);
      }

      .cls-3 {
        fill: #1d1d1b;
      }
    </style>
    <clipPath id="clip-path">
      <rect class="cls-1" y="6.326" width="48" height="35.348"/>
    </clipPath>
  </defs>
  <g class="cls-2">
    <path class="cls-3" d="M20.11,23.7564a3.8392,3.8392,0,0,0-2.302,1.125l-.219.221c-.188.189-.376.377-.566.564-.02,0-.041,0-.061.001-.313.004-.609.007-.893-.017a2.0454,2.0454,0,0,1-1.813-1.255,2.099,2.099,0,0,1,.068-1.909,2.078,2.078,0,0,1,1.557-1.08c.245-.033.833-.044,1.31-.044.204,0,.388.002.516.005q.624.621,1.245,1.244.501.5025,1.004,1.004c.049.049.101.096.154.141m-.096-2.205q-.687-.6885-1.376-1.374a1.1069,1.1069,0,0,0-.698-.303,20.5269,20.5269,0,0,0-2.26.045,3.6235,3.6235,0,0,0-2.783,5.109,3.5226,3.5226,0,0,0,3.046,2.117c.356.03.702.026,1.037.021l.24-.002a1.0654,1.0654,0,0,0,.716-.293c.242-.234.479-.473.716-.712l.218-.218a2.2917,2.2917,0,0,1,1.66-.708,2.3351,2.3351,0,0,1,1.659.73l.003.003-.002.003-.885.884q-.996.996-1.99,1.993a1.9315,1.9315,0,0,1-1.651.685H1.7826a.8688.8688,0,0,1-.247-.026A3.16,3.16,0,0,1,1.5,28.88v-4.266a.6522.6522,0,0,1,.561-.713l.178-.042c.518-.124,1.896-.454,2.452-.573l.385-.082.151-.364c.014-.034,1.405-3.392,2.012-4.913l.053-.134V17.65c.002-1.584.001-4.814,0-6.741V9.5434a.7594.7594,0,0,1,.237-.6.7222.7222,0,0,1,.591-.142.7061.7061,0,0,1,.58.715c.001,2.33-.001,7.14-.001,7.14h.002a.7487.7487,0,0,0,.436.682.7366.7366,0,0,0,.312.069.75.75,0,0,0,.682-.439c.037-.079,3.655-7.991,3.989-8.706a.726.726,0,0,1,.56-.43.6618.6618,0,0,1,.607.233.68.68,0,0,1,.086.833l-3.009,6.611a.7506.7506,0,0,0,.372.994.7476.7476,0,0,0,.841-.155l.001.001,1.931-1.941a2.3807,2.3807,0,0,1,.406-.329c.543-.345,2.965-1.834,4.412-2.724l.852-.524a.704.704,0,0,1,.471-.088.6827.6827,0,0,1,.575.555.697.697,0,0,1-.302.721q-.855.53-1.711,1.055-1.188.73-2.373,1.465c-.113.071-.229.139-.344.207a5.2729,5.2729,0,0,0-1.504,1.171c-.085.099-.699.725-1.243,1.273a.75.75,0,0,0,.532,1.278h3.316a.6641.6641,0,0,1,.506.19c1.048,1.041,1.993,1.981,2.945,2.947a.6739.6739,0,0,1,.196.526.705.705,0,0,1-1.229.421q-.501-.4995-1-1.001m3.725.682a2.1808,2.1808,0,0,0-.624-1.681c-.958-.972-1.905-1.914-2.956-2.958a2.1692,2.1692,0,0,0-1.563-.626h-1.534c.041-.044.073-.08.089-.1a3.9948,3.9948,0,0,1,1.107-.831c.126-.074.251-.148.374-.225q1.1805-.735,2.366-1.461.858-.5265,1.714-1.056a2.2008,2.2008,0,0,0-2.319-3.741l-.851.524c-1.329.816-3.476,2.137-4.252,2.622l1.448-3.181a2.21,2.21,0,0,0-2.268-3.172,2.2315,2.2315,0,0,0-1.71,1.281c-.197.424-1.496,3.26-2.56,5.585V9.5154a2.1974,2.1974,0,0,0-1.847-2.196,2.1733,2.1733,0,0,0-2.561,2.224v1.366c.001,1.87.002,4.967,0,6.595-.501,1.252-1.438,3.523-1.802,4.402-.666.151-1.672.392-2.1.494l-.175.042A2.1438,2.1438,0,0,0,0,24.6144v4.267a2.8669,2.8669,0,0,0,.212,1.337,1.6068,1.6068,0,0,0,1.571.813h15.881a3.3953,3.3953,0,0,0,2.715-1.127q.9915-.9975,1.987-1.99l.885-.885a1.458,1.458,0,0,0,.011-2.114,3.9939,3.9939,0,0,0-.998-.748,2.2133,2.2133,0,0,0,1.475-1.934"/>
    <path class="cls-3" d="M27.89,24.2434a3.8392,3.8392,0,0,0,2.302-1.125l.219-.221c.188-.189.376-.377.566-.564.02,0,.041,0,.061-.001.313-.004.609-.007.893.017a2.0454,2.0454,0,0,1,1.813,1.255,2.099,2.099,0,0,1-.068,1.909,2.078,2.078,0,0,1-1.557,1.08c-.245.033-.833.044-1.31.044-.204,0-.388-.002-.516-.005q-.624-.621-1.245-1.244-.501-.5025-1.004-1.004c-.049-.049-.101-.096-.154-.141m.096,2.205q.687.6885,1.376,1.374a1.1069,1.1069,0,0,0,.698.303,20.5269,20.5269,0,0,0,2.26-.045,3.6235,3.6235,0,0,0,2.783-5.109,3.5226,3.5226,0,0,0-3.046-2.117c-.356-.03-.702-.025-1.037-.021l-.24.002a1.0654,1.0654,0,0,0-.716.293c-.242.234-.479.473-.716.712l-.218.218a2.2917,2.2917,0,0,1-1.66.708,2.3351,2.3351,0,0,1-1.659-.73l-.003-.003.002-.003.885-.884q.996-.996,1.99-1.993a1.9315,1.9315,0,0,1,1.651-.685h15.881a.8688.8688,0,0,1,.247.026,3.16,3.16,0,0,1,.036.625v4.266a.6522.6522,0,0,1-.561.713l-.178.042c-.518.124-1.896.454-2.452.573l-.385.082-.151.364c-.014.034-1.405,3.392-2.012,4.913l-.053.134v.143c-.002,1.584-.001,4.814,0,6.741v1.366a.7594.7594,0,0,1-.237.6.7222.7222,0,0,1-.591.142.7061.7061,0,0,1-.58-.715c-.001-2.33.001-7.14.001-7.14h-.002a.7487.7487,0,0,0-.436-.682.7366.7366,0,0,0-.312-.069.75.75,0,0,0-.682.439c-.037.079-3.655,7.991-3.989,8.706a.726.726,0,0,1-.56.43.6618.6618,0,0,1-.607-.233.68.68,0,0,1-.086-.833l3.009-6.611a.7506.7506,0,0,0-.372-.994.7476.7476,0,0,0-.841.155l-.001-.001-1.931,1.941a2.3807,2.3807,0,0,1-.406.329c-.543.345-2.965,1.834-4.412,2.724l-.852.524a.704.704,0,0,1-.471.088.6827.6827,0,0,1-.575-.555.697.697,0,0,1,.302-.721q.855-.5295,1.711-1.055,1.188-.73,2.373-1.465c.113-.071.229-.139.344-.207a5.2729,5.2729,0,0,0,1.504-1.171c.085-.099.699-.725,1.243-1.273a.75.75,0,0,0-.532-1.278h-3.316a.6641.6641,0,0,1-.506-.19c-1.048-1.041-1.993-1.981-2.945-2.947a.6739.6739,0,0,1-.196-.526.705.705,0,0,1,1.229-.421q.501.5,1,1.001m-3.725-.682a2.1808,2.1808,0,0,0,.624,1.681c.958.972,1.905,1.915,2.956,2.958a2.1692,2.1692,0,0,0,1.563.626h1.534c-.041.044-.073.08-.089.101a4.012,4.012,0,0,1-1.107.83c-.126.074-.251.148-.374.225q-1.1805.735-2.366,1.461-.858.5265-1.714,1.056a2.2008,2.2008,0,0,0,2.319,3.741l.851-.523c1.329-.817,3.476-2.138,4.252-2.623l-1.448,3.181a2.21,2.21,0,0,0,2.268,3.172,2.2315,2.2315,0,0,0,1.71-1.281c.197-.424,1.496-3.259,2.56-5.585v3.698a2.1974,2.1974,0,0,0,1.847,2.196,2.1733,2.1733,0,0,0,2.561-2.224V37.09c-.001-1.87-.002-4.967,0-6.595.501-1.252,1.438-3.523,1.802-4.402.666-.151,1.672-.392,2.1-.494l.175-.042A2.1438,2.1438,0,0,0,48,23.3854v-4.267a2.8669,2.8669,0,0,0-.212-1.337,1.6068,1.6068,0,0,0-1.571-.813H30.3364a3.3953,3.3953,0,0,0-2.715,1.127q-.9915.9975-1.987,1.99l-.885.885a1.458,1.458,0,0,0-.011,2.114,3.9939,3.9939,0,0,0,.998.748,2.2133,2.2133,0,0,0-1.475,1.934"/>
  </g>
</svg>
